<svg width="46" height="45" viewBox="0 0 46 45" fill="none" xmlns="http://www.w3.org/2000/svg">
<path d="M41.8397 9.30071H31.3798C32.0733 8.38006 32.4902 7.23943 32.4902 6.0009C32.4902 2.96838 30.0231 0.501221 26.9905 0.501221C25.1905 0.501221 23.595 1.37457 22.5908 2.71539C21.5871 1.37457 19.9911 0.501221 18.1911 0.501221C15.1585 0.501221 12.6914 2.96838 12.6914 6.0009C12.6914 7.23943 13.1083 8.38006 13.8018 9.30071H3.34192C1.52208 9.30071 0.0421143 10.7807 0.0421143 12.6005V17.0003C0.0421143 18.434 0.962211 19.6533 2.24199 20.1076V41.1988C2.24199 43.0187 3.72195 44.4987 5.54179 44.4987H39.6398C41.4597 44.4987 42.9396 43.0187 42.9396 41.1988V20.1076C44.2194 19.6533 45.1395 18.434 45.1395 17.0003V12.6005C45.1395 10.7807 43.6595 9.30071 41.8397 9.30071ZM19.291 18.1002V11.5006H25.8906V18.1002H19.291ZM25.8906 20.3001V42.2988H19.291V20.3001H25.8906ZM26.9905 2.70109C28.8104 2.70109 30.2904 4.18106 30.2904 6.0009C30.2904 7.82074 28.8104 9.30071 26.9905 9.30071H23.6907V6.0009C23.6907 4.18106 25.1707 2.70109 26.9905 2.70109ZM14.8913 6.0009C14.8913 4.18106 16.3712 2.70109 18.1911 2.70109C20.0109 2.70109 21.4909 4.18106 21.4909 6.0009V9.30071H18.1911C16.3712 9.30071 14.8913 7.82074 14.8913 6.0009ZM2.24199 12.6005C2.24199 11.9939 2.73531 11.5006 3.34192 11.5006H17.0911V18.1002H3.34192C2.73531 18.1002 2.24199 17.6069 2.24199 17.0003V12.6005ZM4.44186 41.1988V20.3001H17.0911V42.2988H5.54179C4.93518 42.2988 4.44186 41.8055 4.44186 41.1988ZM39.6398 42.2988H28.0905V20.3001H40.7397V41.1988C40.7397 41.8055 40.2464 42.2988 39.6398 42.2988ZM42.9396 17.0003C42.9396 17.6069 42.4463 18.1002 41.8397 18.1002H28.0905V11.5006H41.8397C42.4463 11.5006 42.9396 11.9939 42.9396 12.6005V17.0003Z" fill="white"/>
</svg>
