<svg width="44" height="56" viewBox="0 0 44 56" fill="none" xmlns="http://www.w3.org/2000/svg">
<g clip-path="url(#clip0_63_626)">
<path d="M28.6115 24.5464L19.0099 28.3414L29.5266 54.2552L32.9783 49.04L39.1282 50.4602L28.6115 24.5464Z" fill="#E89F52"/>
<path style="mix-blend-mode:screen" d="M28.5461 24.6933L38.9377 50.3009L33.0041 48.9296L32.9259 48.9116L32.8816 48.9785L29.5472 54.0136L19.1557 28.4059L28.5435 24.6958M28.6061 24.5492L19.0045 28.3442L29.5211 54.258L32.9754 49.0428L39.1228 50.4656L28.6061 24.5518V24.5492Z" fill="url(#paint0_linear_63_626)"/>
<path d="M14.7394 25.3828L24.341 29.1778L13.8243 55.0916L10.3701 49.8764L4.22273 51.2966L14.7394 25.3828Z" fill="#E89F52"/>
<path style="mix-blend-mode:screen" d="M14.802 25.5292L24.1898 29.2393L13.7983 54.847L10.4639 49.8119L10.4196 49.745L10.3414 49.763L4.40783 51.1343L14.7994 25.5267M14.7368 25.38L4.22273 51.2964L10.3701 49.8762L13.8243 55.0914L24.341 29.1775L14.7394 25.3826L14.7368 25.38Z" fill="url(#paint1_linear_63_626)"/>
<path d="M43.088 21.3097C43.088 33.0265 33.4629 42.528 21.588 42.528C9.71309 42.528 0.0880127 33.0265 0.0880127 21.3097C0.0880127 9.59288 9.71309 0.0913086 21.588 0.0913086C33.4629 0.0913086 43.088 9.5903 43.088 21.3097Z" fill="#E89F52"/>
<path d="M0.583344 21.3097C0.583344 9.8605 9.98682 0.5802 21.588 0.5802C33.1892 0.5802 42.5927 9.8605 42.5927 21.3097C42.5927 32.7589 33.1892 42.0392 21.588 42.0392C9.98682 42.0392 0.583344 32.7564 0.583344 21.3097Z" fill="#B5B4AF"/>
<path d="M42.1365 21.3097C42.1365 32.5093 32.9363 41.5889 21.588 41.5889C10.2397 41.5889 1.03696 32.5093 1.03696 21.3097C1.03696 10.11 10.2371 1.02783 21.588 1.02783C32.9389 1.02783 42.1365 10.1075 42.1365 21.3071V21.3097Z" fill="url(#paint2_radial_63_626)"/>
<path d="M20.7277 40.4929C20.6026 40.4877 20.5035 40.3822 20.5061 40.2562C20.5139 40.1301 20.6182 40.0323 20.7459 40.0401C20.8737 40.0452 20.9728 40.1507 20.9675 40.2768C20.9623 40.4003 20.8607 40.4954 20.7381 40.4954C20.7381 40.4954 20.7303 40.4954 20.7277 40.4954V40.4929ZM23.9526 40.1455C23.9369 40.0195 24.023 39.9037 24.1507 39.8883C24.2758 39.8728 24.3932 39.9577 24.4114 40.0838C24.427 40.2073 24.3384 40.3205 24.2133 40.3385C24.2133 40.3385 24.1924 40.3385 24.182 40.3385C24.0699 40.3385 23.9708 40.2562 23.9552 40.143L23.9526 40.1455ZM17.2708 40.0401C17.1483 40.0092 17.0701 39.8908 17.0987 39.7673C17.1274 39.6438 17.2499 39.5666 17.3725 39.5949C17.4976 39.6232 17.5758 39.7442 17.5471 39.8677C17.5211 39.9732 17.4272 40.0452 17.3203 40.0452C17.3047 40.0452 17.2891 40.0452 17.2708 40.0401ZM27.3234 39.4303C27.2843 39.3094 27.3495 39.1833 27.4694 39.1447C27.592 39.1061 27.7197 39.1704 27.7588 39.2888C27.7979 39.4071 27.7301 39.5358 27.6128 39.5744C27.5867 39.5821 27.5633 39.5847 27.5424 39.5847C27.446 39.5847 27.3573 39.5229 27.3234 39.4277V39.4303ZM13.9547 38.98C13.8374 38.9311 13.7826 38.7974 13.8322 38.6816C13.8817 38.5684 14.0147 38.5143 14.132 38.5632C14.2493 38.6121 14.304 38.7459 14.2545 38.8617C14.218 38.9466 14.132 39.0006 14.0433 39.0006C14.012 39.0006 13.9808 38.9929 13.9547 38.9826V38.98ZM30.5066 38.131C30.4466 38.0204 30.4883 37.884 30.6004 37.8222C30.7099 37.7631 30.8507 37.8042 30.9107 37.9149C30.9706 38.0229 30.9289 38.1619 30.8194 38.221C30.7855 38.2416 30.7464 38.2493 30.7099 38.2493C30.6291 38.2493 30.5483 38.2056 30.5066 38.131ZM10.8836 37.3488C10.7794 37.2794 10.7507 37.1379 10.8185 37.035C10.8888 36.9295 11.0322 36.9037 11.1365 36.9706C11.2434 37.0401 11.2721 37.1816 11.2017 37.2845C11.1574 37.3514 11.0844 37.3874 11.0114 37.3874C10.9671 37.3874 10.9227 37.3746 10.8862 37.3488H10.8836ZM33.403 36.2888C33.3222 36.1911 33.3378 36.0495 33.4395 35.9724C33.5385 35.8926 33.6819 35.908 33.7601 36.0058C33.841 36.1036 33.8253 36.2477 33.7236 36.3248C33.6819 36.3583 33.6324 36.3763 33.5803 36.3763C33.5125 36.3763 33.4473 36.3454 33.4004 36.2888H33.403ZM8.1541 35.2057C8.06285 35.1207 8.05764 34.9741 8.14367 34.884C8.2297 34.794 8.3783 34.7914 8.46955 34.8763C8.55818 34.9612 8.5634 35.1079 8.47737 35.1954C8.43044 35.2442 8.37048 35.2648 8.31052 35.2648C8.25577 35.2648 8.19842 35.2442 8.1541 35.2031V35.2057ZM35.9187 33.9681C35.8249 33.8832 35.8145 33.7417 35.8979 33.6491C35.9813 33.5539 36.1247 33.5436 36.2212 33.6259C36.315 33.7108 36.3254 33.8523 36.242 33.945C36.1951 33.9964 36.1351 34.0247 36.0699 34.0247C36.0178 34.0247 35.9631 34.0041 35.9187 33.9681ZM5.85211 32.6174C5.77651 32.5144 5.79997 32.3755 5.90164 32.3009C6.00592 32.2289 6.1467 32.2494 6.2223 32.3524C6.29791 32.4553 6.27444 32.5942 6.17277 32.6688C6.13106 32.6971 6.08413 32.7126 6.03721 32.7126C5.96682 32.7126 5.89643 32.6817 5.85211 32.6199V32.6174ZM37.9783 31.2409C37.8714 31.1766 37.8323 31.0376 37.9001 30.9296C37.9652 30.8241 38.106 30.7881 38.2155 30.8498C38.3224 30.9167 38.3589 31.0531 38.2937 31.1637C38.252 31.2332 38.1738 31.2717 38.0956 31.2717C38.0565 31.2717 38.0148 31.2615 37.9783 31.2409ZM4.05588 29.6663C4.00113 29.5557 4.04806 29.4193 4.16277 29.3653C4.27748 29.3112 4.41565 29.355 4.47039 29.4707C4.52514 29.584 4.47821 29.7203 4.3609 29.7743C4.32962 29.7872 4.29572 29.7975 4.26183 29.7975C4.17319 29.7975 4.09498 29.7486 4.05327 29.6689L4.05588 29.6663ZM39.5112 28.1946C39.3913 28.1509 39.3313 28.0197 39.3756 27.9039C39.4226 27.7855 39.5555 27.7264 39.6728 27.7701C39.7928 27.8138 39.8527 27.945 39.8084 28.0634C39.7745 28.1534 39.6859 28.21 39.592 28.21C39.5633 28.21 39.5399 28.2049 39.5112 28.1946ZM2.82798 26.4476C2.79409 26.3241 2.86448 26.2006 2.98701 26.1698C3.10954 26.1363 3.23728 26.2058 3.26856 26.3267C3.30245 26.4502 3.23206 26.5737 3.10954 26.6046C3.08868 26.6123 3.06782 26.6149 3.04697 26.6149C2.94529 26.6149 2.85405 26.548 2.82537 26.4502L2.82798 26.4476ZM40.468 24.9297C40.3428 24.9065 40.2594 24.7881 40.2829 24.6672C40.3063 24.5437 40.4263 24.4614 40.5488 24.4845C40.6739 24.5077 40.7547 24.6261 40.7339 24.747C40.713 24.8576 40.6166 24.9348 40.5071 24.9348C40.494 24.9348 40.4784 24.9348 40.468 24.9297ZM2.2049 23.0618C2.19448 22.9383 2.28833 22.8276 2.41346 22.8173C2.5386 22.807 2.65331 22.8971 2.66374 23.0206C2.67417 23.1467 2.58031 23.2573 2.45518 23.2676H2.43432C2.317 23.2676 2.21533 23.1801 2.2049 23.0618ZM40.5827 21.3199V21.2968V21.2762C40.5827 21.1501 40.687 21.0498 40.8121 21.0472C40.9372 21.0472 41.0415 21.1501 41.0415 21.2736V21.2942V21.3199C41.0415 21.4434 40.9372 21.5463 40.8121 21.5463C40.687 21.5463 40.5827 21.4434 40.5827 21.3199ZM2.41086 19.8663C2.28572 19.856 2.18926 19.7428 2.2023 19.6193C2.21272 19.4958 2.32483 19.4032 2.44996 19.416C2.5751 19.4263 2.67156 19.5369 2.65852 19.6604C2.64809 19.7788 2.54903 19.8663 2.42911 19.8663H2.41086ZM40.2724 17.9289C40.249 17.8054 40.3324 17.6871 40.4575 17.6639C40.5827 17.6407 40.7 17.7231 40.7235 17.8466C40.7469 17.9701 40.6635 18.0858 40.5384 18.109C40.5253 18.109 40.5097 18.1142 40.494 18.1142C40.3872 18.1142 40.2881 18.037 40.2698 17.9289H40.2724ZM2.98179 16.501C2.85666 16.4701 2.78627 16.344 2.81755 16.2231C2.85144 16.1022 2.97919 16.0327 3.09911 16.0636C3.22164 16.097 3.29463 16.2231 3.26074 16.3414C3.23206 16.4444 3.14082 16.5087 3.03915 16.5087C3.01829 16.5087 2.99743 16.5087 2.97919 16.4984L2.98179 16.501ZM39.3652 14.682C39.3183 14.5636 39.3782 14.435 39.4982 14.3886C39.6181 14.3423 39.7484 14.4015 39.7954 14.5199C39.8397 14.6382 39.7797 14.7694 39.6624 14.8132C39.6337 14.8235 39.6077 14.8286 39.579 14.8286C39.4877 14.8286 39.3991 14.772 39.3652 14.682ZM4.14973 13.3003C4.03502 13.2463 3.98549 13.1099 4.04284 12.9967C4.09759 12.8835 4.23576 12.8372 4.35047 12.8912C4.46518 12.9453 4.51471 13.0816 4.45736 13.1948C4.41565 13.2772 4.33483 13.3235 4.2488 13.3235C4.21751 13.3235 4.18102 13.3132 4.14973 13.3003ZM37.8792 11.6588C37.814 11.5508 37.8505 11.4119 37.9574 11.345C38.0669 11.2806 38.2077 11.3167 38.2729 11.4247C38.338 11.5302 38.3041 11.6691 38.1921 11.736C38.1556 11.7592 38.1164 11.7669 38.0747 11.7669C37.9965 11.7669 37.9209 11.7283 37.8766 11.6588H37.8792ZM5.88079 10.357C5.7765 10.2849 5.75565 10.1409 5.83125 10.0405C5.90425 9.94018 6.04763 9.91959 6.14931 9.99163C6.25359 10.0662 6.27444 10.2078 6.19884 10.3081C6.15452 10.3698 6.08413 10.4007 6.01374 10.4007C5.96682 10.4007 5.91989 10.3879 5.88079 10.357ZM35.8718 8.94448C35.7858 8.85186 35.7988 8.7052 35.8927 8.62545C35.9865 8.54054 36.1351 8.55341 36.2159 8.64603C36.2994 8.74122 36.2889 8.8853 36.1951 8.96506C36.1508 9.00366 36.096 9.02167 36.0439 9.02167C35.9787 9.02167 35.9187 8.99336 35.8718 8.94448ZM8.11499 7.76868C8.02635 7.67863 8.02896 7.53198 8.12281 7.44708C8.21406 7.36217 8.36005 7.36475 8.44608 7.45479C8.53472 7.54485 8.53211 7.68893 8.44087 7.7764C8.39394 7.81757 8.33659 7.83815 8.27923 7.83815C8.21927 7.83815 8.15931 7.815 8.11499 7.76868ZM33.4056 6.62633C33.3039 6.54915 33.2883 6.40507 33.3691 6.30987C33.4473 6.2121 33.5907 6.19667 33.6897 6.27385C33.7888 6.35104 33.8045 6.49512 33.7262 6.59031C33.6793 6.64692 33.6141 6.67522 33.5464 6.67522C33.4942 6.67522 33.4447 6.65978 33.403 6.62633H33.4056ZM10.7794 5.61006C10.709 5.50714 10.7376 5.36563 10.8445 5.29874C10.9488 5.22927 11.0922 5.25757 11.1626 5.36306C11.2304 5.46855 11.2043 5.60748 11.0974 5.67695C11.0583 5.70525 11.0114 5.71554 10.9697 5.71554C10.8967 5.71554 10.8237 5.67952 10.7794 5.61263V5.61006ZM30.5613 4.77902C30.4518 4.71985 30.4101 4.58091 30.4701 4.47285C30.5301 4.36222 30.6682 4.32105 30.7803 4.38023C30.8924 4.4394 30.9341 4.57834 30.8742 4.6864C30.8325 4.76358 30.7516 4.80732 30.6708 4.80732C30.6343 4.80732 30.5978 4.79703 30.5639 4.77902H30.5613ZM13.7904 3.95828C13.7383 3.8425 13.7904 3.70871 13.9104 3.65983C14.0277 3.61094 14.1606 3.66497 14.2128 3.78075C14.2623 3.89396 14.2128 4.02775 14.0929 4.07663C14.0616 4.0895 14.0329 4.09464 14.0042 4.09464C13.9156 4.09464 13.8296 4.04318 13.7931 3.95828H13.7904ZM27.4251 3.46172C27.3026 3.42313 27.2374 3.29705 27.2765 3.17613C27.3156 3.05778 27.4434 2.99346 27.5659 3.03205C27.6884 3.07064 27.751 3.19671 27.7119 3.31764C27.6806 3.41283 27.592 3.47458 27.4929 3.47458C27.4694 3.47458 27.446 3.47458 27.4251 3.46429V3.46172ZM17.0518 2.86224C17.0231 2.73874 17.1014 2.62039 17.2239 2.58952C17.349 2.56122 17.4689 2.64098 17.5002 2.75933C17.5289 2.88025 17.4507 3.00375 17.3282 3.03205C17.3099 3.0372 17.2943 3.03977 17.276 3.03977C17.1717 3.03977 17.0753 2.96773 17.0518 2.86224ZM24.1038 2.72331C23.9786 2.7053 23.89 2.59209 23.9056 2.46859C23.9213 2.34252 24.036 2.25762 24.1637 2.27306C24.2915 2.29107 24.3775 2.40427 24.3619 2.53034C24.3488 2.64355 24.2498 2.72588 24.1351 2.72588H24.1038V2.72331ZM20.4618 2.36311C20.454 2.23961 20.553 2.13155 20.6808 2.1264C20.8059 2.11869 20.9154 2.21645 20.9206 2.34252C20.9284 2.46859 20.8294 2.57408 20.7016 2.57923C20.7016 2.57923 20.6938 2.57923 20.6912 2.57923C20.5687 2.57923 20.467 2.48403 20.4618 2.36053V2.36311Z" fill="url(#paint3_linear_63_626)"/>
<path d="M3.93335 21.3096C3.93335 11.6871 11.8378 3.88623 21.588 3.88623C31.3382 3.88623 39.2427 11.6871 39.2427 21.3096C39.2427 30.9321 31.3382 38.733 21.588 38.733C11.8378 38.733 3.93335 30.9321 3.93335 21.3096Z" fill="#E89F52"/>
<path d="M35.3374 21.3096C35.3374 28.8043 29.1822 34.8789 21.588 34.8789C13.9938 34.8789 7.83865 28.8043 7.83865 21.3096C7.83865 13.8149 13.9938 7.74036 21.588 7.74036C29.1822 7.74036 35.3374 13.8149 35.3374 21.3096Z" fill="url(#paint4_linear_63_626)"/>
<path d="M5.20296 21.3097C5.20296 12.3793 12.5391 5.13928 21.588 5.13928C30.6369 5.13928 37.9731 12.3793 37.9731 21.3097C37.9731 30.2401 30.6369 37.4801 21.588 37.4801C12.5391 37.4801 5.20296 30.2401 5.20296 21.3097Z" fill="url(#paint5_radial_63_626)"/>
<path d="M21.588 6.1427C13.0996 6.1427 6.2197 12.9325 6.2197 21.3097C6.2197 29.6869 13.0996 36.4767 21.588 36.4767C30.0764 36.4767 36.9563 29.6869 36.9563 21.3097C36.9563 12.9325 30.0764 6.1427 21.588 6.1427ZM21.588 36.0908C13.316 36.0908 6.61075 29.4734 6.61075 21.3097C6.61075 13.146 13.316 6.52863 21.588 6.52863C29.8601 6.52863 36.5653 13.146 36.5653 21.3097C36.5653 29.4734 29.8601 36.0908 21.588 36.0908Z" fill="#E89F52"/>
<path style="mix-blend-mode:screen" opacity="0.8" d="M11.8091 34.2846C16.1237 24.1321 24.4922 15.9453 34.829 11.7875C31.8492 7.75845 27.0288 5.13928 21.588 5.13928C12.5391 5.13928 5.20296 12.3793 5.20296 21.3097C5.20296 26.6227 7.79954 31.3361 11.8091 34.2846Z" fill="url(#paint6_radial_63_626)"/>
<path style="mix-blend-mode:screen" opacity="0.8" d="M14.9584 34.7863L21.588 21.3096L14.5934 34.6036C14.7133 34.6653 14.8359 34.7297 14.9584 34.7888V34.7863ZM16.5904 35.4526L21.588 21.3096L16.2045 35.3163C16.3323 35.3652 16.46 35.4089 16.5904 35.4552V35.4526ZM13.4203 33.9321L21.5854 21.3096L13.0761 33.7134C13.1908 33.788 13.3055 33.86 13.4203 33.9321ZM11.9916 32.9132L21.588 21.3096L11.6814 32.6508C11.7857 32.7383 11.8873 32.8283 11.9942 32.9132H11.9916ZM20.0264 36.209L21.5854 21.3096L19.6171 36.1576C19.7527 36.1756 19.8882 36.1962 20.0238 36.209H20.0264ZM18.2875 35.9286L21.5854 21.3096L17.8887 35.8386C18.0216 35.872 18.1546 35.9003 18.2875 35.9286ZM7.73176 27.4227L21.5854 21.3071L7.56491 27.0522C7.61705 27.1783 7.67441 27.2992 7.72915 27.4227H7.73176ZM7.10347 25.7967L21.588 21.3096L6.99137 25.4082C7.02787 25.5368 7.06437 25.668 7.10608 25.7967H7.10347ZM21.588 36.2888C21.6558 36.2888 21.7236 36.2837 21.794 36.2837L21.588 21.3096L21.3821 36.2837C21.4498 36.2837 21.5176 36.2888 21.588 36.2888ZM6.67853 24.1115L21.588 21.3096L6.60814 23.7127C6.629 23.8465 6.65507 23.9803 6.68114 24.1115H6.67853ZM9.53581 30.4124L21.5854 21.3096L9.29075 30.0882C9.37157 30.1989 9.45239 30.3069 9.53581 30.4124ZM10.6881 31.7297L21.588 21.3096L10.4066 31.4364C10.4978 31.5367 10.5943 31.6319 10.6881 31.7297ZM8.54515 28.9716L21.588 21.3096L8.3418 28.6217C8.40958 28.74 8.47737 28.8558 8.54515 28.9716ZM31.4946 32.6508L21.588 21.3096L31.1844 32.9132C31.2887 32.8283 31.393 32.7383 31.4973 32.6508H31.4946ZM36.1847 25.4082L21.588 21.3096L36.0726 25.7967C36.1143 25.668 36.1482 25.5368 36.1873 25.4082H36.1847ZM35.6059 27.0548L21.588 21.3096L35.4417 27.4253C35.4964 27.3018 35.5538 27.1783 35.6059 27.0548ZM34.8316 28.6217L21.5854 21.3096L34.6257 28.9716C34.6961 28.8558 34.7638 28.74 34.829 28.6217H34.8316ZM36.5679 23.7127L21.588 21.3096L36.4975 24.1115C36.5236 23.9803 36.547 23.8465 36.5705 23.7127H36.5679ZM36.7217 22.3799C36.7321 22.2461 36.7399 22.1124 36.7478 21.976L21.588 21.3071L36.7217 22.3774V22.3799ZM23.5537 36.1576L21.588 21.3096L23.147 36.209C23.2852 36.1962 23.4181 36.1756 23.5537 36.1576ZM33.8801 30.0882L21.5854 21.3096L33.635 30.4124C33.7184 30.3043 33.7992 30.1963 33.8801 30.0882ZM26.9663 35.3163L21.5854 21.3096L26.5804 35.4526C26.7108 35.4089 26.8385 35.3626 26.9663 35.3137V35.3163ZM28.5774 34.6036L21.5828 21.3096L28.2098 34.7863C28.3323 34.7271 28.4549 34.6653 28.5748 34.601L28.5774 34.6036ZM25.2821 35.8386L21.5854 21.3096L24.8833 35.9286C25.0162 35.9003 25.1518 35.8694 25.2821 35.8386ZM30.0947 33.7134L21.5854 21.3096L29.7506 33.9321C29.8653 33.86 29.9826 33.788 30.0947 33.7134ZM32.7669 31.4364L21.5854 21.3096L32.4827 31.7297C32.5792 31.6319 32.673 31.5367 32.7643 31.4364H32.7669ZM6.45172 22.3799L21.588 21.3096L6.42826 21.9786C6.43347 22.1149 6.4439 22.2487 6.45433 22.3825L6.45172 22.3799ZM6.60553 18.904L21.5854 21.3071L6.67592 18.5052C6.64985 18.639 6.62639 18.7702 6.60293 18.904H6.60553ZM29.7506 8.68461L21.5854 21.3096L30.0947 8.90588C29.9826 8.83126 29.8653 8.75922 29.7506 8.68718V8.68461ZM28.215 7.83042L21.588 21.3071L28.5826 8.01309C28.4627 7.95135 28.3402 7.88702 28.2176 7.82785L28.215 7.83042ZM31.1818 9.70346L21.588 21.3071L31.4946 9.96332C31.3904 9.87584 31.2887 9.78579 31.1818 9.70089V9.70346ZM24.8859 6.68807L21.588 21.3096L25.2847 6.78069C25.1518 6.74725 25.0188 6.71895 24.8859 6.69064V6.68807ZM26.583 7.16405L21.588 21.3096L26.9689 7.30298C26.8411 7.2541 26.7134 7.21036 26.583 7.16405ZM23.147 6.40763L21.588 21.3071L23.5537 6.45651C23.4181 6.4385 23.2826 6.42049 23.147 6.40506V6.40763ZM32.4853 10.887L21.588 21.3071L32.7695 11.1803C32.6782 11.0825 32.5818 10.9847 32.4879 10.887H32.4853ZM36.4949 18.5052L21.5854 21.3071L36.5653 18.904C36.5444 18.7702 36.5184 18.639 36.4923 18.5052H36.4949ZM36.0699 16.82L21.5854 21.3096L36.182 17.2111C36.1455 17.0824 36.109 16.9512 36.0673 16.8226L36.0699 16.82ZM33.635 12.2043L21.5854 21.3096L33.8801 12.531C33.7992 12.423 33.7184 12.3123 33.635 12.2069V12.2043ZM36.7191 20.2367L21.5854 21.3096L36.7452 20.6407C36.7399 20.5043 36.7295 20.3705 36.7191 20.2367ZM35.4391 15.1914L21.5854 21.3071L35.6033 15.5619C35.5511 15.4384 35.4938 15.3149 35.4391 15.1914ZM34.6257 13.6451L21.5854 21.3071L34.8316 13.995C34.7638 13.8766 34.6961 13.7609 34.6283 13.6451H34.6257ZM11.6762 9.96589L21.5828 21.3096L11.989 9.70603C11.8821 9.79094 11.7804 9.87842 11.6762 9.96847V9.96589ZM21.5828 6.33044C21.515 6.33044 21.4472 6.33559 21.3768 6.33559L21.5828 21.3096L21.7888 6.33559C21.721 6.33559 21.6532 6.33044 21.5828 6.33044ZM10.4013 11.1829L21.5828 21.3096L10.6855 10.8895C10.589 10.9873 10.4952 11.0825 10.4039 11.1829H10.4013ZM8.33659 13.9976L21.5828 21.3096L8.53993 13.6477C8.46954 13.7634 8.40176 13.8792 8.33659 13.9976ZM9.28815 12.531L21.5828 21.3096L9.5332 12.2043C9.44978 12.3123 9.36896 12.4204 9.28815 12.5285V12.531ZM7.56231 15.5644L21.5828 21.3096L7.72915 15.1939C7.67441 15.3174 7.61705 15.4409 7.56491 15.5644H7.56231ZM6.98355 17.2111L21.5802 21.3096L7.09565 16.82C7.05394 16.9486 7.02005 17.0798 6.98094 17.2085L6.98355 17.2111ZM6.42044 20.6407L21.5802 21.3096L6.44651 20.2367C6.43608 20.3705 6.42565 20.5043 6.42044 20.6407ZM19.6145 6.45909L21.5828 21.3096L20.0238 6.4102C19.8856 6.42307 19.7527 6.44365 19.6171 6.46166L19.6145 6.45909ZM17.8835 6.77812L21.5802 21.3071L18.2823 6.6855C18.1494 6.7138 18.0138 6.74467 17.8835 6.77555V6.77812ZM13.0709 8.9033L21.5802 21.3071L13.415 8.68204C13.3003 8.75408 13.183 8.82612 13.0709 8.90073V8.9033ZM14.5856 8.01567L21.5802 21.3096L14.9506 7.83299C14.828 7.89217 14.7055 7.95392 14.5856 8.01824V8.01567ZM16.1967 7.30041L21.5802 21.3071L16.5826 7.16148C16.4522 7.20522 16.3245 7.25153 16.1967 7.30041Z" fill="url(#paint7_radial_63_626)"/>
<path d="M14.6522 26.1089L11.7598 24.474L8.87615 26.1089L9.61223 22.9878L7.09224 20.874L10.4349 20.5767L11.7598 17.6455L13.0935 20.5767L16.4275 20.874L13.9075 22.9878L14.6522 26.1089Z" fill="#E89F52"/>
<path d="M35.0433 25.9401L32.2663 24.3705L29.4976 25.9401L30.2043 22.9435L27.7848 20.914L30.9942 20.6286L32.2663 17.8142L33.5467 20.6286L36.7478 20.914L34.3283 22.9435L35.0433 25.9401Z" fill="#E89F52"/>
<path d="M24.4119 35.7574L21.4431 34.0793L18.4832 35.7574L19.2387 32.5538L16.6521 30.3841L20.0831 30.079L21.4431 27.0703L22.812 30.079L26.2341 30.3841L23.6475 32.5538L24.4119 35.7574Z" fill="#E89F52"/>
<path d="M24.6616 17.158L21.4431 15.3388L18.2343 17.158L19.0534 13.6849L16.2493 11.3328L19.9688 11.0021L21.4431 7.74036L22.9271 11.0021L26.637 11.3328L23.8329 13.6849L24.6616 17.158Z" fill="#E89F52"/>
<path d="M25.1708 27.0703L21.4431 24.9632L17.7266 27.0703L18.6752 23.0478L15.4275 20.3235L19.7355 19.9404L21.4431 16.1626L23.1619 19.9404L27.4588 20.3235L24.211 23.0478L25.1708 27.0703Z" fill="#E89F52"/>
</g>
<defs>
<linearGradient id="paint0_linear_63_626" x1="19.0097" y1="39.4023" x2="39.128" y2="39.4023" gradientUnits="userSpaceOnUse">
<stop stop-color="#D5D5D5"/>
<stop offset="0.05" stop-color="#E0E0E0"/>
<stop offset="0.21" stop-color="white"/>
<stop offset="0.45" stop-color="#272727"/>
<stop offset="0.67" stop-color="#B7B7B7"/>
<stop offset="1" stop-color="#D5D5D5"/>
</linearGradient>
<linearGradient id="paint1_linear_63_626" x1="4.22273" y1="40.2383" x2="24.341" y2="40.2383" gradientUnits="userSpaceOnUse">
<stop stop-color="#D5D5D5"/>
<stop offset="0.05" stop-color="#E0E0E0"/>
<stop offset="0.21" stop-color="white"/>
<stop offset="0.45" stop-color="#272727"/>
<stop offset="0.67" stop-color="#B7B7B7"/>
<stop offset="1" stop-color="#D5D5D5"/>
</linearGradient>
<radialGradient id="paint2_radial_63_626" cx="0" cy="0" r="1" gradientUnits="userSpaceOnUse" gradientTransform="translate(14.5595 6.90939) scale(39.7595 39.2387)">
<stop stop-color="#2C3C4F"/>
<stop offset="0.52" stop-color="#0D1D30"/>
<stop offset="1" stop-color="#060D29"/>
</radialGradient>
<linearGradient id="paint3_linear_63_626" x1="7.53884" y1="5.7001" x2="38.9494" y2="41.4266" gradientUnits="userSpaceOnUse">
<stop stop-color="#D5D5D5"/>
<stop offset="0.05" stop-color="#E0E0E0"/>
<stop offset="0.21" stop-color="white"/>
<stop offset="0.45" stop-color="#272727"/>
<stop offset="0.67" stop-color="#B7B7B7"/>
<stop offset="1" stop-color="#D5D5D5"/>
</linearGradient>
<linearGradient id="paint4_linear_63_626" x1="11.0844" y1="12.6905" x2="31.6145" y2="29.989" gradientUnits="userSpaceOnUse">
<stop stop-color="#D5D5D5"/>
<stop offset="0.05" stop-color="#E0E0E0"/>
<stop offset="0.21" stop-color="white"/>
<stop offset="0.45" stop-color="#272727"/>
<stop offset="0.67" stop-color="#B7B7B7"/>
<stop offset="1" stop-color="#D5D5D5"/>
</linearGradient>
<radialGradient id="paint5_radial_63_626" cx="0" cy="0" r="1" gradientUnits="userSpaceOnUse" gradientTransform="translate(31.8883 36.3172) scale(34.7175 34.2628)">
<stop offset="0.06" stop-color="#2C3C4F"/>
<stop offset="0.52" stop-color="#0D1D30"/>
<stop offset="1" stop-color="#060D29"/>
</radialGradient>
<radialGradient id="paint6_radial_63_626" cx="0" cy="0" r="1" gradientUnits="userSpaceOnUse" gradientTransform="translate(37.7228 25.4571) scale(35.4501 34.9857)">
<stop stop-color="#CBCBCB"/>
<stop offset="0.14" stop-color="#6D6D6D"/>
<stop offset="0.25" stop-color="#4B4B4B"/>
<stop offset="0.36" stop-color="#303030"/>
<stop offset="0.48" stop-color="#1A1A1A"/>
<stop offset="0.61" stop-color="#0B0B0B"/>
<stop offset="0.77" stop-color="#020202"/>
<stop offset="1"/>
</radialGradient>
<radialGradient id="paint7_radial_63_626" cx="0" cy="0" r="1" gradientUnits="userSpaceOnUse" gradientTransform="translate(7.1504 4.44711) scale(32.6189 32.1916)">
<stop stop-color="#CBCBCB"/>
<stop offset="0.14" stop-color="#6D6D6D"/>
<stop offset="0.25" stop-color="#4B4B4B"/>
<stop offset="0.36" stop-color="#303030"/>
<stop offset="0.48" stop-color="#1A1A1A"/>
<stop offset="0.61" stop-color="#0B0B0B"/>
<stop offset="0.77" stop-color="#020202"/>
<stop offset="1"/>
</radialGradient>
<clipPath id="clip0_63_626">
<rect width="43" height="55" fill="white" transform="translate(0.0880127 0.0913086)"/>
</clipPath>
</defs>
</svg>
