<svg width="44" height="56" viewBox="0 0 44 56" fill="none" xmlns="http://www.w3.org/2000/svg">
<g clip-path="url(#clip0_63_599)">
<path d="M28.6115 25.1486L19.0099 28.9435L29.5266 54.8574L32.9783 49.6422L39.1282 51.0624L28.6115 25.1486Z" fill="#B9F2FF"/>
<path style="mix-blend-mode:screen" d="M28.5461 25.2954L38.9377 50.9031L33.0041 49.5318L32.9259 49.5138L32.8816 49.5807L29.5472 54.6157L19.1557 29.0081L28.5435 25.298M28.6061 25.1514L19.0045 28.9463L29.5211 54.8602L32.9754 49.645L39.1228 51.0678L28.6061 25.1539V25.1514Z" fill="url(#paint0_linear_63_599)"/>
<path d="M14.7394 25.985L24.341 29.78L13.8243 55.6938L10.3701 50.4786L4.22273 51.8988L14.7394 25.985Z" fill="#B9F2FF"/>
<path style="mix-blend-mode:screen" d="M14.802 26.1314L24.1898 29.8415L13.7983 55.4491L10.4639 50.414L10.4196 50.3472L10.3414 50.3652L4.40783 51.7365L14.7994 26.1288M14.7368 25.9822L4.22273 51.8986L10.3701 50.4784L13.8243 55.6936L24.341 29.7797L14.7394 25.9848L14.7368 25.9822Z" fill="url(#paint1_linear_63_599)"/>
<path d="M43.088 21.9118C43.088 33.6286 33.4629 43.1302 21.588 43.1302C9.71309 43.1302 0.0880127 33.6286 0.0880127 21.9118C0.0880127 10.195 9.71309 0.693481 21.588 0.693481C33.4629 0.693481 43.088 10.1925 43.088 21.9118Z" fill="#B9F2FF"/>
<path d="M0.583344 21.9119C0.583344 10.4627 9.98682 1.18237 21.588 1.18237C33.1892 1.18237 42.5927 10.4627 42.5927 21.9119C42.5927 33.3611 33.1892 42.6414 21.588 42.6414C9.98682 42.6414 0.583344 33.3585 0.583344 21.9119Z" fill="#B9F2FF"/>
<path d="M42.1365 21.9118C42.1365 33.1115 32.9363 42.1911 21.588 42.1911C10.2397 42.1911 1.03696 33.1115 1.03696 21.9118C1.03696 10.7122 10.2371 1.63 21.588 1.63C32.9389 1.63 42.1365 10.7096 42.1365 21.9093V21.9118Z" fill="url(#paint2_radial_63_599)"/>
<path d="M20.7277 41.095C20.6026 41.0899 20.5035 40.9844 20.5061 40.8583C20.5139 40.7323 20.6182 40.6345 20.7459 40.6422C20.8737 40.6474 20.9728 40.7529 20.9675 40.8789C20.9623 41.0024 20.8607 41.0976 20.7381 41.0976C20.7381 41.0976 20.7303 41.0976 20.7277 41.0976V41.095ZM23.9526 40.7477C23.9369 40.6216 24.023 40.5059 24.1507 40.4904C24.2758 40.475 24.3932 40.5599 24.4114 40.686C24.427 40.8095 24.3384 40.9227 24.2133 40.9407C24.2133 40.9407 24.1924 40.9407 24.182 40.9407C24.0699 40.9407 23.9708 40.8583 23.9552 40.7451L23.9526 40.7477ZM17.2708 40.6422C17.1483 40.6114 17.0701 40.493 17.0987 40.3695C17.1274 40.246 17.2499 40.1688 17.3725 40.1971C17.4976 40.2254 17.5758 40.3463 17.5471 40.4698C17.5211 40.5753 17.4272 40.6474 17.3203 40.6474C17.3047 40.6474 17.2891 40.6474 17.2708 40.6422ZM27.3234 40.0325C27.2843 39.9115 27.3495 39.7855 27.4694 39.7469C27.592 39.7083 27.7197 39.7726 27.7588 39.891C27.7979 40.0093 27.7301 40.1379 27.6128 40.1765C27.5867 40.1843 27.5633 40.1868 27.5424 40.1868C27.446 40.1868 27.3573 40.1251 27.3234 40.0299V40.0325ZM13.9547 39.5822C13.8374 39.5333 13.7826 39.3995 13.8322 39.2838C13.8817 39.1706 14.0147 39.1165 14.132 39.1654C14.2493 39.2143 14.304 39.3481 14.2545 39.4639C14.218 39.5488 14.132 39.6028 14.0433 39.6028C14.012 39.6028 13.9808 39.5951 13.9547 39.5848V39.5822ZM30.5066 38.7332C30.4466 38.6225 30.4883 38.4862 30.6004 38.4244C30.7099 38.3652 30.8507 38.4064 30.9107 38.517C30.9706 38.6251 30.9289 38.764 30.8194 38.8232C30.7855 38.8438 30.7464 38.8515 30.7099 38.8515C30.6291 38.8515 30.5483 38.8078 30.5066 38.7332ZM10.8836 37.951C10.7794 37.8815 10.7507 37.74 10.8185 37.6371C10.8888 37.5316 11.0322 37.5059 11.1365 37.5728C11.2434 37.6423 11.2721 37.7838 11.2017 37.8867C11.1574 37.9536 11.0844 37.9896 11.0114 37.9896C10.9671 37.9896 10.9227 37.9767 10.8862 37.951H10.8836ZM33.403 36.891C33.3222 36.7932 33.3378 36.6517 33.4395 36.5745C33.5385 36.4948 33.6819 36.5102 33.7601 36.608C33.841 36.7057 33.8253 36.8498 33.7236 36.927C33.6819 36.9605 33.6324 36.9785 33.5803 36.9785C33.5125 36.9785 33.4473 36.9476 33.4004 36.891H33.403ZM8.1541 35.8078C8.06285 35.7229 8.05764 35.5763 8.14367 35.4862C8.2297 35.3962 8.3783 35.3936 8.46955 35.4785C8.55818 35.5634 8.5634 35.7101 8.47737 35.7975C8.43044 35.8464 8.37048 35.867 8.31052 35.867C8.25577 35.867 8.19842 35.8464 8.1541 35.8053V35.8078ZM35.9187 34.5703C35.8249 34.4854 35.8145 34.3439 35.8979 34.2512C35.9813 34.156 36.1247 34.1458 36.2212 34.2281C36.315 34.313 36.3254 34.4545 36.242 34.5471C36.1951 34.5986 36.1351 34.6269 36.0699 34.6269C36.0178 34.6269 35.9631 34.6063 35.9187 34.5703ZM5.85211 33.2195C5.77651 33.1166 5.79997 32.9777 5.90164 32.9031C6.00592 32.831 6.1467 32.8516 6.2223 32.9545C6.29791 33.0574 6.27444 33.1964 6.17277 33.271C6.13106 33.2993 6.08413 33.3147 6.03721 33.3147C5.96682 33.3147 5.89643 33.2838 5.85211 33.2221V33.2195ZM37.9783 31.843C37.8714 31.7787 37.8323 31.6398 37.9001 31.5317C37.9652 31.4262 38.106 31.3902 38.2155 31.452C38.3224 31.5189 38.3589 31.6552 38.2937 31.7659C38.252 31.8353 38.1738 31.8739 38.0956 31.8739C38.0565 31.8739 38.0148 31.8636 37.9783 31.843ZM4.05588 30.2685C4.00113 30.1578 4.04806 30.0215 4.16277 29.9674C4.27748 29.9134 4.41565 29.9571 4.47039 30.0729C4.52514 30.1861 4.47821 30.3225 4.3609 30.3765C4.32962 30.3894 4.29572 30.3997 4.26183 30.3997C4.17319 30.3997 4.09498 30.3508 4.05327 30.271L4.05588 30.2685ZM39.5112 28.7968C39.3913 28.753 39.3313 28.6218 39.3756 28.5061C39.4226 28.3877 39.5555 28.3285 39.6728 28.3723C39.7928 28.416 39.8527 28.5472 39.8084 28.6656C39.7745 28.7556 39.6859 28.8122 39.592 28.8122C39.5633 28.8122 39.5399 28.8071 39.5112 28.7968ZM2.82798 27.0498C2.79409 26.9263 2.86448 26.8028 2.98701 26.7719C3.10954 26.7385 3.23728 26.808 3.26856 26.9289C3.30245 27.0524 3.23206 27.1759 3.10954 27.2068C3.08868 27.2145 3.06782 27.217 3.04697 27.217C2.94529 27.217 2.85405 27.1502 2.82537 27.0524L2.82798 27.0498ZM40.468 25.5318C40.3428 25.5087 40.2594 25.3903 40.2829 25.2694C40.3063 25.1459 40.4263 25.0636 40.5488 25.0867C40.6739 25.1099 40.7547 25.2282 40.7339 25.3492C40.713 25.4598 40.6166 25.537 40.5071 25.537C40.494 25.537 40.4784 25.537 40.468 25.5318ZM2.2049 23.6639C2.19448 23.5404 2.28833 23.4298 2.41346 23.4195C2.5386 23.4092 2.65331 23.4993 2.66374 23.6228C2.67417 23.7488 2.58031 23.8595 2.45518 23.8698H2.43432C2.317 23.8698 2.21533 23.7823 2.2049 23.6639ZM40.5827 21.9221V21.8989V21.8784C40.5827 21.7523 40.687 21.652 40.8121 21.6494C40.9372 21.6494 41.0415 21.7523 41.0415 21.8758V21.8964V21.9221C41.0415 22.0456 40.9372 22.1485 40.8121 22.1485C40.687 22.1485 40.5827 22.0456 40.5827 21.9221ZM2.41086 20.4684C2.28572 20.4581 2.18926 20.3449 2.2023 20.2214C2.21272 20.0979 2.32483 20.0053 2.44996 20.0182C2.5751 20.0285 2.67156 20.1391 2.65852 20.2626C2.64809 20.381 2.54903 20.4684 2.42911 20.4684H2.41086ZM40.2724 18.5311C40.249 18.4076 40.3324 18.2892 40.4575 18.2661C40.5827 18.2429 40.7 18.3252 40.7235 18.4487C40.7469 18.5722 40.6635 18.688 40.5384 18.7112C40.5253 18.7112 40.5097 18.7163 40.494 18.7163C40.3872 18.7163 40.2881 18.6391 40.2698 18.5311H40.2724ZM2.98179 17.1031C2.85666 17.0723 2.78627 16.9462 2.81755 16.8253C2.85144 16.7043 2.97919 16.6349 3.09911 16.6658C3.22164 16.6992 3.29463 16.8253 3.26074 16.9436C3.23206 17.0465 3.14082 17.1109 3.03915 17.1109C3.01829 17.1109 2.99743 17.1109 2.97919 17.1006L2.98179 17.1031ZM39.3652 15.2841C39.3183 15.1658 39.3782 15.0371 39.4982 14.9908C39.6181 14.9445 39.7484 15.0037 39.7954 15.122C39.8397 15.2404 39.7797 15.3716 39.6624 15.4153C39.6337 15.4256 39.6077 15.4308 39.579 15.4308C39.4877 15.4308 39.3991 15.3742 39.3652 15.2841ZM4.14973 13.9025C4.03502 13.8485 3.98549 13.7121 4.04284 13.5989C4.09759 13.4857 4.23576 13.4394 4.35047 13.4934C4.46518 13.5474 4.51471 13.6838 4.45736 13.797C4.41565 13.8793 4.33483 13.9257 4.2488 13.9257C4.21751 13.9257 4.18102 13.9154 4.14973 13.9025ZM37.8792 12.261C37.814 12.153 37.8505 12.014 37.9574 11.9471C38.0669 11.8828 38.2077 11.9188 38.2729 12.0269C38.338 12.1324 38.3041 12.2713 38.1921 12.3382C38.1556 12.3614 38.1164 12.3691 38.0747 12.3691C37.9965 12.3691 37.9209 12.3305 37.8766 12.261H37.8792ZM5.88079 10.9592C5.7765 10.8871 5.75565 10.743 5.83125 10.6427C5.90425 10.5423 6.04763 10.5218 6.14931 10.5938C6.25359 10.6684 6.27444 10.8099 6.19884 10.9103C6.15452 10.972 6.08413 11.0029 6.01374 11.0029C5.96682 11.0029 5.91989 10.99 5.88079 10.9592ZM35.8718 9.54665C35.7858 9.45403 35.7988 9.30738 35.8927 9.22762C35.9865 9.14271 36.1351 9.15558 36.2159 9.2482C36.2994 9.3434 36.2889 9.48748 36.1951 9.56724C36.1508 9.60583 36.096 9.62384 36.0439 9.62384C35.9787 9.62384 35.9187 9.59554 35.8718 9.54665ZM8.11499 8.37086C8.02635 8.28081 8.02896 8.13415 8.12281 8.04925C8.21406 7.96434 8.36005 7.96692 8.44608 8.05697C8.53472 8.14702 8.53211 8.2911 8.44087 8.37858C8.39394 8.41974 8.33659 8.44032 8.27923 8.44032C8.21927 8.44032 8.15931 8.41717 8.11499 8.37086ZM33.4056 7.22851C33.3039 7.15132 33.2883 7.00724 33.3691 6.91205C33.4473 6.81428 33.5907 6.79884 33.6897 6.87603C33.7888 6.95321 33.8045 7.09729 33.7262 7.19249C33.6793 7.24909 33.6141 7.27739 33.5464 7.27739C33.4942 7.27739 33.4447 7.26195 33.403 7.22851H33.4056ZM10.7794 6.21223C10.709 6.10931 10.7376 5.96781 10.8445 5.90091C10.9488 5.83144 11.0922 5.85975 11.1626 5.96523C11.2304 6.07072 11.2043 6.20965 11.0974 6.27912C11.0583 6.30742 11.0114 6.31772 10.9697 6.31772C10.8967 6.31772 10.8237 6.28169 10.7794 6.2148V6.21223ZM30.5613 5.38119C30.4518 5.32202 30.4101 5.18308 30.4701 5.07502C30.5301 4.96439 30.6682 4.92323 30.7803 4.9824C30.8924 5.04158 30.9341 5.18051 30.8742 5.28857C30.8325 5.36576 30.7516 5.4095 30.6708 5.4095C30.6343 5.4095 30.5978 5.3992 30.5639 5.38119H30.5613ZM13.7904 4.56045C13.7383 4.44467 13.7904 4.31089 13.9104 4.262C14.0277 4.21312 14.1606 4.26715 14.2128 4.38293C14.2623 4.49613 14.2128 4.62992 14.0929 4.6788C14.0616 4.69167 14.0329 4.69681 14.0042 4.69681C13.9156 4.69681 13.8296 4.64536 13.7931 4.56045H13.7904ZM27.4251 4.06389C27.3026 4.0253 27.2374 3.89923 27.2765 3.7783C27.3156 3.65995 27.4434 3.59563 27.5659 3.63422C27.6884 3.67282 27.751 3.79889 27.7119 3.91981C27.6806 4.01501 27.592 4.07675 27.4929 4.07675C27.4694 4.07675 27.446 4.07675 27.4251 4.06646V4.06389ZM17.0518 3.46441C17.0231 3.34092 17.1014 3.22257 17.2239 3.19169C17.349 3.16339 17.4689 3.24315 17.5002 3.3615C17.5289 3.48242 17.4507 3.60592 17.3282 3.63422C17.3099 3.63937 17.2943 3.64194 17.276 3.64194C17.1717 3.64194 17.0753 3.5699 17.0518 3.46441ZM24.1038 3.32548C23.9786 3.30747 23.89 3.19426 23.9056 3.07077C23.9213 2.9447 24.036 2.85979 24.1637 2.87523C24.2915 2.89324 24.3775 3.00645 24.3619 3.13252C24.3488 3.24572 24.2498 3.32805 24.1351 3.32805H24.1038V3.32548ZM20.4618 2.96528C20.454 2.84178 20.553 2.73372 20.6808 2.72858C20.8059 2.72086 20.9154 2.81863 20.9206 2.9447C20.9284 3.07077 20.8294 3.17625 20.7016 3.1814C20.7016 3.1814 20.6938 3.1814 20.6912 3.1814C20.5687 3.1814 20.467 3.0862 20.4618 2.96271V2.96528Z" fill="url(#paint3_linear_63_599)"/>
<path d="M3.93335 21.9118C3.93335 12.2893 11.8378 4.4884 21.588 4.4884C31.3382 4.4884 39.2427 12.2893 39.2427 21.9118C39.2427 31.5343 31.3382 39.3352 21.588 39.3352C11.8378 39.3352 3.93335 31.5343 3.93335 21.9118Z" fill="#B9F2FF"/>
<path d="M35.3374 21.9118C35.3374 29.4065 29.1822 35.481 21.588 35.481C13.9938 35.481 7.83865 29.4065 7.83865 21.9118C7.83865 14.417 13.9938 8.34253 21.588 8.34253C29.1822 8.34253 35.3374 14.417 35.3374 21.9118Z" fill="url(#paint4_linear_63_599)"/>
<path d="M5.20296 21.9119C5.20296 12.9815 12.5391 5.74146 21.588 5.74146C30.6369 5.74146 37.9731 12.9815 37.9731 21.9119C37.9731 30.8423 30.6369 38.0823 21.588 38.0823C12.5391 38.0823 5.20296 30.8423 5.20296 21.9119Z" fill="url(#paint5_radial_63_599)"/>
<path d="M21.588 6.74487C13.0996 6.74487 6.2197 13.5346 6.2197 21.9119C6.2197 30.2891 13.0996 37.0789 21.588 37.0789C30.0764 37.0789 36.9563 30.2891 36.9563 21.9119C36.9563 13.5346 30.0764 6.74487 21.588 6.74487ZM21.588 36.6929C13.316 36.6929 6.61075 30.0756 6.61075 21.9119C6.61075 13.7482 13.316 7.1308 21.588 7.1308C29.8601 7.1308 36.5653 13.7482 36.5653 21.9119C36.5653 30.0756 29.8601 36.6929 21.588 36.6929Z" fill="#B9F2FF"/>
<path style="mix-blend-mode:screen" opacity="0.8" d="M11.8091 34.8868C16.1237 24.7343 24.4922 16.5475 34.829 12.3897C31.8492 8.36062 27.0288 5.74146 21.588 5.74146C12.5391 5.74146 5.20296 12.9815 5.20296 21.9119C5.20296 27.2248 7.79954 31.9383 11.8091 34.8868Z" fill="url(#paint6_radial_63_599)"/>
<path style="mix-blend-mode:screen" opacity="0.8" d="M14.9584 35.3884L21.588 21.9118L14.5934 35.2058C14.7133 35.2675 14.8359 35.3318 14.9584 35.391V35.3884ZM16.5904 36.0548L21.588 21.9118L16.2045 35.9184C16.3323 35.9673 16.46 36.0111 16.5904 36.0574V36.0548ZM13.4203 34.5342L21.5854 21.9118L13.0761 34.3155C13.1908 34.3902 13.3055 34.4622 13.4203 34.5342ZM11.9916 33.5154L21.588 21.9118L11.6814 33.253C11.7857 33.3404 11.8873 33.4305 11.9942 33.5154H11.9916ZM20.0264 36.8112L21.5854 21.9118L19.6171 36.7598C19.7527 36.7778 19.8882 36.7984 20.0238 36.8112H20.0264ZM18.2875 36.5308L21.5854 21.9118L17.8887 36.4407C18.0216 36.4742 18.1546 36.5025 18.2875 36.5308ZM7.73176 28.0249L21.5854 21.9092L7.56491 27.6544C7.61705 27.7805 7.67441 27.9014 7.72915 28.0249H7.73176ZM7.10347 26.3989L21.588 21.9118L6.99137 26.0104C7.02787 26.139 7.06437 26.2702 7.10608 26.3989H7.10347ZM21.588 36.891C21.6558 36.891 21.7236 36.8858 21.794 36.8858L21.588 21.9118L21.3821 36.8858C21.4498 36.8858 21.5176 36.891 21.588 36.891ZM6.67853 24.7136L21.588 21.9118L6.60814 24.3148C6.629 24.4486 6.65507 24.5824 6.68114 24.7136H6.67853ZM9.53581 31.0146L21.5854 21.9118L9.29075 30.6904C9.37157 30.801 9.45239 30.9091 9.53581 31.0146ZM10.6881 32.3319L21.588 21.9118L10.4066 32.0386C10.4978 32.1389 10.5943 32.2341 10.6881 32.3319ZM8.54515 29.5738L21.588 21.9118L8.3418 29.2239C8.40958 29.3422 8.47737 29.458 8.54515 29.5738ZM31.4946 33.253L21.588 21.9118L31.1844 33.5154C31.2887 33.4305 31.393 33.3404 31.4973 33.253H31.4946ZM36.1847 26.0104L21.588 21.9118L36.0726 26.3989C36.1143 26.2702 36.1482 26.139 36.1873 26.0104H36.1847ZM35.6059 27.657L21.588 21.9118L35.4417 28.0275C35.4964 27.904 35.5538 27.7805 35.6059 27.657ZM34.8316 29.2239L21.5854 21.9118L34.6257 29.5738C34.6961 29.458 34.7638 29.3422 34.829 29.2239H34.8316ZM36.5679 24.3148L21.588 21.9118L36.4975 24.7136C36.5236 24.5824 36.547 24.4486 36.5705 24.3148H36.5679ZM36.7217 22.9821C36.7321 22.8483 36.7399 22.7145 36.7478 22.5782L21.588 21.9092L36.7217 22.9795V22.9821ZM23.5537 36.7598L21.588 21.9118L23.147 36.8112C23.2852 36.7984 23.4181 36.7778 23.5537 36.7598ZM33.8801 30.6904L21.5854 21.9118L33.635 31.0146C33.7184 30.9065 33.7992 30.7985 33.8801 30.6904ZM26.9663 35.9184L21.5854 21.9118L26.5804 36.0548C26.7108 36.0111 26.8385 35.9647 26.9663 35.9159V35.9184ZM28.5774 35.2058L21.5828 21.9118L28.2098 35.3884C28.3323 35.3293 28.4549 35.2675 28.5748 35.2032L28.5774 35.2058ZM25.2821 36.4407L21.5854 21.9118L24.8833 36.5308C25.0162 36.5025 25.1518 36.4716 25.2821 36.4407ZM30.0947 34.3155L21.5854 21.9118L29.7506 34.5342C29.8653 34.4622 29.9826 34.3902 30.0947 34.3155ZM32.7669 32.0386L21.5854 21.9118L32.4827 32.3319C32.5792 32.2341 32.673 32.1389 32.7643 32.0386H32.7669ZM6.45172 22.9821L21.588 21.9118L6.42826 22.5807C6.43347 22.7171 6.4439 22.8509 6.45433 22.9847L6.45172 22.9821ZM6.60553 19.5062L21.5854 21.9092L6.67592 19.1074C6.64985 19.2412 6.62639 19.3724 6.60293 19.5062H6.60553ZM29.7506 9.28678L21.5854 21.9118L30.0947 9.50805C29.9826 9.43343 29.8653 9.3614 29.7506 9.28936V9.28678ZM28.215 8.43259L21.588 21.9092L28.5826 8.61527C28.4627 8.55352 28.3402 8.4892 28.2176 8.43002L28.215 8.43259ZM31.1818 10.3056L21.588 21.9092L31.4946 10.5655C31.3904 10.478 31.2887 10.388 31.1818 10.3031V10.3056ZM24.8859 7.29024L21.588 21.9118L25.2847 7.38287C25.1518 7.34942 25.0188 7.32112 24.8859 7.29282V7.29024ZM26.583 7.76622L21.588 21.9118L26.9689 7.90516C26.8411 7.85627 26.7134 7.81253 26.583 7.76622ZM23.147 7.0098L21.588 21.9092L23.5537 7.05869C23.4181 7.04068 23.2826 7.02267 23.147 7.00723V7.0098ZM32.4853 11.4891L21.588 21.9092L32.7695 11.7825C32.6782 11.6847 32.5818 11.5869 32.4879 11.4891H32.4853ZM36.4949 19.1074L21.5854 21.9092L36.5653 19.5062C36.5444 19.3724 36.5184 19.2412 36.4923 19.1074H36.4949ZM36.0699 17.4222L21.5854 21.9118L36.182 17.8132C36.1455 17.6846 36.109 17.5534 36.0673 17.4247L36.0699 17.4222ZM33.635 12.8065L21.5854 21.9118L33.8801 13.1332C33.7992 13.0251 33.7184 12.9145 33.635 12.809V12.8065ZM36.7191 20.8389L21.5854 21.9118L36.7452 21.2429C36.7399 21.1065 36.7295 20.9727 36.7191 20.8389ZM35.4391 15.7935L21.5854 21.9092L35.6033 16.164C35.5511 16.0405 35.4938 15.917 35.4391 15.7935ZM34.6257 14.2473L21.5854 21.9092L34.8316 14.5972C34.7638 14.4788 34.6961 14.363 34.6283 14.2473H34.6257ZM11.6762 10.5681L21.5828 21.9118L11.989 10.3082C11.8821 10.3931 11.7804 10.4806 11.6762 10.5706V10.5681ZM21.5828 6.93262C21.515 6.93262 21.4472 6.93776 21.3768 6.93776L21.5828 21.9118L21.7888 6.93776C21.721 6.93776 21.6532 6.93262 21.5828 6.93262ZM10.4013 11.785L21.5828 21.9118L10.6855 11.4917C10.589 11.5895 10.4952 11.6847 10.4039 11.785H10.4013ZM8.33659 14.5997L21.5828 21.9118L8.53993 14.2498C8.46954 14.3656 8.40176 14.4814 8.33659 14.5997ZM9.28815 13.1332L21.5828 21.9118L9.5332 12.8065C9.44978 12.9145 9.36896 13.0226 9.28815 13.1306V13.1332ZM7.56231 16.1666L21.5828 21.9118L7.72915 15.7961C7.67441 15.9196 7.61705 16.0431 7.56491 16.1666H7.56231ZM6.98355 17.8132L21.5802 21.9118L7.09565 17.4222C7.05394 17.5508 7.02005 17.682 6.98094 17.8107L6.98355 17.8132ZM6.42044 21.2429L21.5802 21.9118L6.44651 20.8389C6.43608 20.9727 6.42565 21.1065 6.42044 21.2429ZM19.6145 7.06126L21.5828 21.9118L20.0238 7.01238C19.8856 7.02524 19.7527 7.04582 19.6171 7.06383L19.6145 7.06126ZM17.8835 7.38029L21.5802 21.9092L18.2823 7.28767C18.1494 7.31597 18.0138 7.34685 17.8835 7.37772V7.38029ZM13.0709 9.50548L21.5802 21.9092L13.415 9.28421C13.3003 9.35625 13.183 9.42829 13.0709 9.5029V9.50548ZM14.5856 8.61784L21.5802 21.9118L14.9506 8.43517C14.828 8.49434 14.7055 8.55609 14.5856 8.62041V8.61784ZM16.1967 7.90258L21.5802 21.9092L16.5826 7.76365C16.4522 7.80739 16.3245 7.8537 16.1967 7.90258Z" fill="url(#paint7_radial_63_599)"/>
<path d="M19.0832 27.6725L15.5337 25.6662L11.9948 27.6725L12.8981 23.8422L9.80563 21.2482L13.9077 20.8834L15.5337 17.2863L17.1703 20.8834L21.2617 21.2482L18.1692 23.8422L19.0832 27.6725Z" fill="#B9F2FF"/>
<path d="M31.2584 27.6725L27.7089 25.6662L24.1701 27.6725L25.0734 23.8422L21.9809 21.2482L26.083 20.8834L27.7089 17.2863L29.3455 20.8834L33.437 21.2482L30.3445 23.8422L31.2584 27.6725Z" fill="#B9F2FF"/>
<path d="M24.8112 34.4142L21.2617 32.4079L17.7229 34.4142L18.6262 30.5839L15.5337 27.9899L19.6358 27.6251L21.2617 24.028L22.8983 27.6251L26.9898 27.9899L23.8973 30.5839L24.8112 34.4142Z" fill="#B9F2FF"/>
<path d="M24.8112 19.7931L21.2617 17.7868L17.7229 19.7931L18.6262 15.9628L15.5337 13.3688L19.6358 13.004L21.2617 9.40686L22.8983 13.004L26.9898 13.3688L23.8973 15.9628L24.8112 19.7931Z" fill="#B9F2FF"/>
</g>
<defs>
<linearGradient id="paint0_linear_63_599" x1="19.0097" y1="40.0045" x2="39.128" y2="40.0045" gradientUnits="userSpaceOnUse">
<stop stop-color="#D5D5D5"/>
<stop offset="0.05" stop-color="#E0E0E0"/>
<stop offset="0.21" stop-color="white"/>
<stop offset="0.45" stop-color="#272727"/>
<stop offset="0.67" stop-color="#B7B7B7"/>
<stop offset="1" stop-color="#D5D5D5"/>
</linearGradient>
<linearGradient id="paint1_linear_63_599" x1="4.22273" y1="40.8404" x2="24.341" y2="40.8404" gradientUnits="userSpaceOnUse">
<stop stop-color="#D5D5D5"/>
<stop offset="0.05" stop-color="#E0E0E0"/>
<stop offset="0.21" stop-color="white"/>
<stop offset="0.45" stop-color="#272727"/>
<stop offset="0.67" stop-color="#B7B7B7"/>
<stop offset="1" stop-color="#D5D5D5"/>
</linearGradient>
<radialGradient id="paint2_radial_63_599" cx="0" cy="0" r="1" gradientUnits="userSpaceOnUse" gradientTransform="translate(14.5595 7.51156) scale(39.7595 39.2387)">
<stop stop-color="#2C3C4F"/>
<stop offset="0.52" stop-color="#0D1D30"/>
<stop offset="1" stop-color="#060D29"/>
</radialGradient>
<linearGradient id="paint3_linear_63_599" x1="7.53884" y1="6.30228" x2="38.9494" y2="42.0288" gradientUnits="userSpaceOnUse">
<stop stop-color="#D5D5D5"/>
<stop offset="0.05" stop-color="#E0E0E0"/>
<stop offset="0.21" stop-color="white"/>
<stop offset="0.45" stop-color="#272727"/>
<stop offset="0.67" stop-color="#B7B7B7"/>
<stop offset="1" stop-color="#D5D5D5"/>
</linearGradient>
<linearGradient id="paint4_linear_63_599" x1="11.0844" y1="13.2927" x2="31.6145" y2="30.5912" gradientUnits="userSpaceOnUse">
<stop stop-color="#D5D5D5"/>
<stop offset="0.05" stop-color="#E0E0E0"/>
<stop offset="0.21" stop-color="white"/>
<stop offset="0.45" stop-color="#272727"/>
<stop offset="0.67" stop-color="#B7B7B7"/>
<stop offset="1" stop-color="#D5D5D5"/>
</linearGradient>
<radialGradient id="paint5_radial_63_599" cx="0" cy="0" r="1" gradientUnits="userSpaceOnUse" gradientTransform="translate(31.8883 36.9194) scale(34.7175 34.2628)">
<stop offset="0.06" stop-color="#2C3C4F"/>
<stop offset="0.52" stop-color="#0D1D30"/>
<stop offset="1" stop-color="#060D29"/>
</radialGradient>
<radialGradient id="paint6_radial_63_599" cx="0" cy="0" r="1" gradientUnits="userSpaceOnUse" gradientTransform="translate(37.7228 26.0593) scale(35.4501 34.9857)">
<stop stop-color="#CBCBCB"/>
<stop offset="0.14" stop-color="#6D6D6D"/>
<stop offset="0.25" stop-color="#4B4B4B"/>
<stop offset="0.36" stop-color="#303030"/>
<stop offset="0.48" stop-color="#1A1A1A"/>
<stop offset="0.61" stop-color="#0B0B0B"/>
<stop offset="0.77" stop-color="#020202"/>
<stop offset="1"/>
</radialGradient>
<radialGradient id="paint7_radial_63_599" cx="0" cy="0" r="1" gradientUnits="userSpaceOnUse" gradientTransform="translate(7.1504 5.04928) scale(32.6189 32.1916)">
<stop stop-color="#CBCBCB"/>
<stop offset="0.14" stop-color="#6D6D6D"/>
<stop offset="0.25" stop-color="#4B4B4B"/>
<stop offset="0.36" stop-color="#303030"/>
<stop offset="0.48" stop-color="#1A1A1A"/>
<stop offset="0.61" stop-color="#0B0B0B"/>
<stop offset="0.77" stop-color="#020202"/>
<stop offset="1"/>
</radialGradient>
<clipPath id="clip0_63_599">
<rect width="43" height="55" fill="white" transform="translate(0.0880127 0.693481)"/>
</clipPath>
</defs>
</svg>
