<svg width="44" height="55" viewBox="0 0 44 55" fill="none" xmlns="http://www.w3.org/2000/svg">
<g clip-path="url(#clip0_63_548)">
<path d="M28.6115 24.4551L19.0099 28.25L29.5266 54.1639L32.9783 48.9487L39.1282 50.3689L28.6115 24.4551Z" fill="#FFD700"/>
<path style="mix-blend-mode:screen" d="M28.5461 24.602L38.9377 50.2096L33.0041 48.8383L32.9259 48.8203L32.8816 48.8872L29.5472 53.9223L19.1557 28.3146L28.5435 24.6045M28.6061 24.4579L19.0045 28.2529L29.5211 54.1667L32.9754 48.9515L39.1228 50.3743L28.6061 24.4605V24.4579Z" fill="url(#paint0_linear_63_548)"/>
<path d="M14.7394 25.2915L24.341 29.0865L13.8243 55.0003L10.3701 49.7851L4.22273 51.2053L14.7394 25.2915Z" fill="#FFD700"/>
<path style="mix-blend-mode:screen" d="M14.802 25.4379L24.1898 29.148L13.7983 54.7557L10.4639 49.7206L10.4196 49.6537L10.3414 49.6717L4.40783 51.043L14.7994 25.4353M14.7368 25.2887L4.22273 51.2051L10.3701 49.7849L13.8243 55.0001L24.341 29.0862L14.7394 25.2913L14.7368 25.2887Z" fill="url(#paint1_linear_63_548)"/>
<path d="M43.088 21.2184C43.088 32.9352 33.4629 42.4367 21.588 42.4367C9.71309 42.4367 0.0880127 32.9352 0.0880127 21.2184C0.0880127 9.50157 9.71309 0 21.588 0C33.4629 0 43.088 9.49899 43.088 21.2184Z" fill="#FFD700"/>
<path d="M0.583344 21.2184C0.583344 9.76919 9.98682 0.488892 21.588 0.488892C33.1892 0.488892 42.5927 9.76919 42.5927 21.2184C42.5927 32.6676 33.1892 41.9479 21.588 41.9479C9.98682 41.9479 0.583344 32.6651 0.583344 21.2184Z" fill="#FFD700"/>
<path d="M42.1365 21.2184C42.1365 32.418 32.9363 41.4976 21.588 41.4976C10.2397 41.4976 1.03696 32.418 1.03696 21.2184C1.03696 10.0187 10.2371 0.936523 21.588 0.936523C32.9389 0.936523 42.1365 10.0161 42.1365 21.2158V21.2184Z" fill="url(#paint2_radial_63_548)"/>
<path d="M20.7277 40.4016C20.6026 40.3964 20.5035 40.2909 20.5061 40.1649C20.5139 40.0388 20.6182 39.941 20.7459 39.9487C20.8737 39.9539 20.9728 40.0594 20.9675 40.1854C20.9623 40.3089 20.8607 40.4041 20.7381 40.4041C20.7381 40.4041 20.7303 40.4041 20.7277 40.4041V40.4016ZM23.9526 40.0542C23.9369 39.9282 24.023 39.8124 24.1507 39.7969C24.2758 39.7815 24.3932 39.8664 24.4114 39.9925C24.427 40.116 24.3384 40.2292 24.2133 40.2472C24.2133 40.2472 24.1924 40.2472 24.182 40.2472C24.0699 40.2472 23.9708 40.1649 23.9552 40.0517L23.9526 40.0542ZM17.2708 39.9487C17.1483 39.9179 17.0701 39.7995 17.0987 39.676C17.1274 39.5525 17.2499 39.4753 17.3725 39.5036C17.4976 39.5319 17.5758 39.6529 17.5471 39.7764C17.5211 39.8819 17.4272 39.9539 17.3203 39.9539C17.3047 39.9539 17.2891 39.9539 17.2708 39.9487ZM27.3234 39.339C27.2843 39.2181 27.3495 39.092 27.4694 39.0534C27.592 39.0148 27.7197 39.0791 27.7588 39.1975C27.7979 39.3158 27.7301 39.4445 27.6128 39.4831C27.5867 39.4908 27.5633 39.4933 27.5424 39.4933C27.446 39.4933 27.3573 39.4316 27.3234 39.3364V39.339ZM13.9547 38.8887C13.8374 38.8398 13.7826 38.7061 13.8322 38.5903C13.8817 38.4771 14.0147 38.423 14.132 38.4719C14.2493 38.5208 14.304 38.6546 14.2545 38.7704C14.218 38.8553 14.132 38.9093 14.0433 38.9093C14.012 38.9093 13.9808 38.9016 13.9547 38.8913V38.8887ZM30.5066 38.0397C30.4466 37.9291 30.4883 37.7927 30.6004 37.7309C30.7099 37.6718 30.8507 37.7129 30.9107 37.8236C30.9706 37.9316 30.9289 38.0706 30.8194 38.1297C30.7855 38.1503 30.7464 38.158 30.7099 38.158C30.6291 38.158 30.5483 38.1143 30.5066 38.0397ZM10.8836 37.2575C10.7794 37.1881 10.7507 37.0466 10.8185 36.9436C10.8888 36.8382 11.0322 36.8124 11.1365 36.8793C11.2434 36.9488 11.2721 37.0903 11.2017 37.1932C11.1574 37.2601 11.0844 37.2961 11.0114 37.2961C10.9671 37.2961 10.9227 37.2833 10.8862 37.2575H10.8836ZM33.403 36.1975C33.3222 36.0997 33.3378 35.9582 33.4395 35.8811C33.5385 35.8013 33.6819 35.8167 33.7601 35.9145C33.841 36.0123 33.8253 36.1563 33.7236 36.2335C33.6819 36.267 33.6324 36.285 33.5803 36.285C33.5125 36.285 33.4473 36.2541 33.4004 36.1975H33.403ZM8.1541 35.1143C8.06285 35.0294 8.05764 34.8828 8.14367 34.7927C8.2297 34.7027 8.3783 34.7001 8.46955 34.785C8.55818 34.8699 8.5634 35.0166 8.47737 35.104C8.43044 35.1529 8.37048 35.1735 8.31052 35.1735C8.25577 35.1735 8.19842 35.1529 8.1541 35.1118V35.1143ZM35.9187 33.8768C35.8249 33.7919 35.8145 33.6504 35.8979 33.5578C35.9813 33.4626 36.1247 33.4523 36.2212 33.5346C36.315 33.6195 36.3254 33.761 36.242 33.8536C36.1951 33.9051 36.1351 33.9334 36.0699 33.9334C36.0178 33.9334 35.9631 33.9128 35.9187 33.8768ZM5.85211 32.526C5.77651 32.4231 5.79997 32.2842 5.90164 32.2096C6.00592 32.1375 6.1467 32.1581 6.2223 32.261C6.29791 32.364 6.27444 32.5029 6.17277 32.5775C6.13106 32.6058 6.08413 32.6212 6.03721 32.6212C5.96682 32.6212 5.89643 32.5904 5.85211 32.5286V32.526ZM37.9783 31.1496C37.8714 31.0852 37.8323 30.9463 37.9001 30.8383C37.9652 30.7328 38.106 30.6967 38.2155 30.7585C38.3224 30.8254 38.3589 30.9617 38.2937 31.0724C38.252 31.1418 38.1738 31.1804 38.0956 31.1804C38.0565 31.1804 38.0148 31.1701 37.9783 31.1496ZM4.05588 29.575C4.00113 29.4643 4.04806 29.328 4.16277 29.274C4.27748 29.2199 4.41565 29.2637 4.47039 29.3794C4.52514 29.4926 4.47821 29.629 4.3609 29.683C4.32962 29.6959 4.29572 29.7062 4.26183 29.7062C4.17319 29.7062 4.09498 29.6573 4.05327 29.5775L4.05588 29.575ZM39.5112 28.1033C39.3913 28.0596 39.3313 27.9283 39.3756 27.8126C39.4226 27.6942 39.5555 27.635 39.6728 27.6788C39.7928 27.7225 39.8527 27.8537 39.8084 27.9721C39.7745 28.0621 39.6859 28.1187 39.592 28.1187C39.5633 28.1187 39.5399 28.1136 39.5112 28.1033ZM2.82798 26.3563C2.79409 26.2328 2.86448 26.1093 2.98701 26.0785C3.10954 26.045 3.23728 26.1145 3.26856 26.2354C3.30245 26.3589 3.23206 26.4824 3.10954 26.5133C3.08868 26.521 3.06782 26.5236 3.04697 26.5236C2.94529 26.5236 2.85405 26.4567 2.82537 26.3589L2.82798 26.3563ZM40.468 24.8383C40.3428 24.8152 40.2594 24.6968 40.2829 24.5759C40.3063 24.4524 40.4263 24.3701 40.5488 24.3932C40.6739 24.4164 40.7547 24.5347 40.7339 24.6557C40.713 24.7663 40.6166 24.8435 40.5071 24.8435C40.494 24.8435 40.4784 24.8435 40.468 24.8383ZM2.2049 22.9704C2.19448 22.847 2.28833 22.7363 2.41346 22.726C2.5386 22.7157 2.65331 22.8058 2.66374 22.9293C2.67417 23.0554 2.58031 23.166 2.45518 23.1763H2.43432C2.317 23.1763 2.21533 23.0888 2.2049 22.9704ZM40.5827 21.2286V21.2055V21.1849C40.5827 21.0588 40.687 20.9585 40.8121 20.9559C40.9372 20.9559 41.0415 21.0588 41.0415 21.1823V21.2029V21.2286C41.0415 21.3521 40.9372 21.455 40.8121 21.455C40.687 21.455 40.5827 21.3521 40.5827 21.2286ZM2.41086 19.775C2.28572 19.7647 2.18926 19.6515 2.2023 19.528C2.21272 19.4045 2.32483 19.3118 2.44996 19.3247C2.5751 19.335 2.67156 19.4456 2.65852 19.5691C2.64809 19.6875 2.54903 19.775 2.42911 19.775H2.41086ZM40.2724 17.8376C40.249 17.7141 40.3324 17.5957 40.4575 17.5726C40.5827 17.5494 40.7 17.6318 40.7235 17.7553C40.7469 17.8788 40.6635 17.9945 40.5384 18.0177C40.5253 18.0177 40.5097 18.0228 40.494 18.0228C40.3872 18.0228 40.2881 17.9457 40.2698 17.8376H40.2724ZM2.98179 16.4097C2.85666 16.3788 2.78627 16.2527 2.81755 16.1318C2.85144 16.0109 2.97919 15.9414 3.09911 15.9723C3.22164 16.0057 3.29463 16.1318 3.26074 16.2501C3.23206 16.3531 3.14082 16.4174 3.03915 16.4174C3.01829 16.4174 2.99743 16.4174 2.97919 16.4071L2.98179 16.4097ZM39.3652 14.5906C39.3183 14.4723 39.3782 14.3437 39.4982 14.2973C39.6181 14.251 39.7484 14.3102 39.7954 14.4286C39.8397 14.5469 39.7797 14.6781 39.6624 14.7219C39.6337 14.7322 39.6077 14.7373 39.579 14.7373C39.4877 14.7373 39.3991 14.6807 39.3652 14.5906ZM4.14973 13.209C4.03502 13.155 3.98549 13.0186 4.04284 12.9054C4.09759 12.7922 4.23576 12.7459 4.35047 12.7999C4.46518 12.854 4.51471 12.9903 4.45736 13.1035C4.41565 13.1859 4.33483 13.2322 4.2488 13.2322C4.21751 13.2322 4.18102 13.2219 4.14973 13.209ZM37.8792 11.5675C37.814 11.4595 37.8505 11.3205 37.9574 11.2536C38.0669 11.1893 38.2077 11.2253 38.2729 11.3334C38.338 11.4389 38.3041 11.5778 38.1921 11.6447C38.1556 11.6679 38.1164 11.6756 38.0747 11.6756C37.9965 11.6756 37.9209 11.637 37.8766 11.5675H37.8792ZM5.88079 10.2657C5.7765 10.1936 5.75565 10.0496 5.83125 9.94921C5.90425 9.84887 6.04763 9.82829 6.14931 9.90033C6.25359 9.97494 6.27444 10.1164 6.19884 10.2168C6.15452 10.2785 6.08413 10.3094 6.01374 10.3094C5.96682 10.3094 5.91989 10.2965 5.88079 10.2657ZM35.8718 8.85317C35.7858 8.76055 35.7988 8.6139 35.8927 8.53414C35.9865 8.44923 36.1351 8.4621 36.2159 8.55472C36.2994 8.64992 36.2889 8.794 36.1951 8.87375C36.1508 8.91235 36.096 8.93036 36.0439 8.93036C35.9787 8.93036 35.9187 8.90206 35.8718 8.85317ZM8.11499 7.67738C8.02635 7.58733 8.02896 7.44067 8.12281 7.35577C8.21406 7.27086 8.36005 7.27344 8.44608 7.36349C8.53472 7.45354 8.53211 7.59762 8.44087 7.68509C8.39394 7.72626 8.33659 7.74684 8.27923 7.74684C8.21927 7.74684 8.15931 7.72369 8.11499 7.67738ZM33.4056 6.53503C33.3039 6.45784 33.2883 6.31376 33.3691 6.21856C33.4473 6.1208 33.5907 6.10536 33.6897 6.18254C33.7888 6.25973 33.8045 6.40381 33.7262 6.49901C33.6793 6.55561 33.6141 6.58391 33.5464 6.58391C33.4942 6.58391 33.4447 6.56847 33.403 6.53503H33.4056ZM10.7794 5.51875C10.709 5.41583 10.7376 5.27432 10.8445 5.20743C10.9488 5.13796 11.0922 5.16626 11.1626 5.27175C11.2304 5.37724 11.2043 5.51617 11.0974 5.58564C11.0583 5.61394 11.0114 5.62423 10.9697 5.62423C10.8967 5.62423 10.8237 5.58821 10.7794 5.52132V5.51875ZM30.5613 4.68771C30.4518 4.62854 30.4101 4.4896 30.4701 4.38154C30.5301 4.27091 30.6682 4.22974 30.7803 4.28892C30.8924 4.3481 30.9341 4.48703 30.8742 4.59509C30.8325 4.67228 30.7516 4.71601 30.6708 4.71601C30.6343 4.71601 30.5978 4.70572 30.5639 4.68771H30.5613ZM13.7904 3.86697C13.7383 3.75119 13.7904 3.6174 13.9104 3.56852C14.0277 3.51963 14.1606 3.57367 14.2128 3.68944C14.2623 3.80265 14.2128 3.93644 14.0929 3.98532C14.0616 3.99819 14.0329 4.00333 14.0042 4.00333C13.9156 4.00333 13.8296 3.95188 13.7931 3.86697H13.7904ZM27.4251 3.37041C27.3026 3.33182 27.2374 3.20575 27.2765 3.08482C27.3156 2.96647 27.4434 2.90215 27.5659 2.94074C27.6884 2.97933 27.751 3.1054 27.7119 3.22633C27.6806 3.32152 27.592 3.38327 27.4929 3.38327C27.4694 3.38327 27.446 3.38327 27.4251 3.37298V3.37041ZM17.0518 2.77093C17.0231 2.64744 17.1014 2.52908 17.2239 2.49821C17.349 2.46991 17.4689 2.54967 17.5002 2.66802C17.5289 2.78894 17.4507 2.91244 17.3282 2.94074C17.3099 2.94589 17.2943 2.94846 17.276 2.94846C17.1717 2.94846 17.0753 2.87642 17.0518 2.77093ZM24.1038 2.632C23.9786 2.61399 23.89 2.50078 23.9056 2.37729C23.9213 2.25122 24.036 2.16631 24.1637 2.18175C24.2915 2.19976 24.3775 2.31296 24.3619 2.43903C24.3488 2.55224 24.2498 2.63457 24.1351 2.63457H24.1038V2.632ZM20.4618 2.2718C20.454 2.1483 20.553 2.04024 20.6808 2.0351C20.8059 2.02738 20.9154 2.12515 20.9206 2.25122C20.9284 2.37729 20.8294 2.48277 20.7016 2.48792C20.7016 2.48792 20.6938 2.48792 20.6912 2.48792C20.5687 2.48792 20.467 2.39272 20.4618 2.26923V2.2718Z" fill="url(#paint3_linear_63_548)"/>
<path d="M3.93335 21.2183C3.93335 11.5958 11.8378 3.79492 21.588 3.79492C31.3382 3.79492 39.2427 11.5958 39.2427 21.2183C39.2427 30.8408 31.3382 38.6417 21.588 38.6417C11.8378 38.6417 3.93335 30.8408 3.93335 21.2183Z" fill="#FFD700"/>
<path d="M35.3374 21.2183C35.3374 28.713 29.1822 34.7876 21.588 34.7876C13.9938 34.7876 7.83865 28.713 7.83865 21.2183C7.83865 13.7236 13.9938 7.64905 21.588 7.64905C29.1822 7.64905 35.3374 13.7236 35.3374 21.2183Z" fill="url(#paint4_linear_63_548)"/>
<path d="M5.20296 21.2184C5.20296 12.288 12.5391 5.04797 21.588 5.04797C30.6369 5.04797 37.9731 12.288 37.9731 21.2184C37.9731 30.1488 30.6369 37.3888 21.588 37.3888C12.5391 37.3888 5.20296 30.1488 5.20296 21.2184Z" fill="url(#paint5_radial_63_548)"/>
<path d="M21.588 6.05139C13.0996 6.05139 6.2197 12.8412 6.2197 21.2184C6.2197 29.5956 13.0996 36.3854 21.588 36.3854C30.0764 36.3854 36.9563 29.5956 36.9563 21.2184C36.9563 12.8412 30.0764 6.05139 21.588 6.05139ZM21.588 35.9995C13.316 35.9995 6.61075 29.3821 6.61075 21.2184C6.61075 13.0547 13.316 6.43732 21.588 6.43732C29.8601 6.43732 36.5653 13.0547 36.5653 21.2184C36.5653 29.3821 29.8601 35.9995 21.588 35.9995Z" fill="#FFD700"/>
<path style="mix-blend-mode:screen" opacity="0.8" d="M11.8091 34.1933C16.1237 24.0408 24.4922 15.854 34.829 11.6962C31.8492 7.66714 27.0288 5.04797 21.588 5.04797C12.5391 5.04797 5.20296 12.288 5.20296 21.2184C5.20296 26.5313 7.79954 31.2448 11.8091 34.1933Z" fill="url(#paint6_radial_63_548)"/>
<path style="mix-blend-mode:screen" opacity="0.8" d="M14.9584 34.695L21.588 21.2183L14.5934 34.5123C14.7133 34.574 14.8359 34.6383 14.9584 34.6975V34.695ZM16.5904 35.3613L21.588 21.2183L16.2045 35.225C16.3323 35.2738 16.46 35.3176 16.5904 35.3639V35.3613ZM13.4203 33.8408L21.5854 21.2183L13.0761 33.6221C13.1908 33.6967 13.3055 33.7687 13.4203 33.8408ZM11.9916 32.8219L21.588 21.2183L11.6814 32.5595C11.7857 32.647 11.8873 32.737 11.9942 32.8219H11.9916ZM20.0264 36.1177L21.5854 21.2183L19.6171 36.0663C19.7527 36.0843 19.8882 36.1049 20.0238 36.1177H20.0264ZM18.2875 35.8373L21.5854 21.2183L17.8887 35.7472C18.0216 35.7807 18.1546 35.809 18.2875 35.8373ZM7.73176 27.3314L21.5854 21.2157L7.56491 26.9609C7.61705 27.087 7.67441 27.2079 7.72915 27.3314H7.73176ZM7.10347 25.7054L21.588 21.2183L6.99137 25.3169C7.02787 25.4455 7.06437 25.5767 7.10608 25.7054H7.10347ZM21.588 36.1975C21.6558 36.1975 21.7236 36.1924 21.794 36.1924L21.588 21.2183L21.3821 36.1924C21.4498 36.1924 21.5176 36.1975 21.588 36.1975ZM6.67853 24.0202L21.588 21.2183L6.60814 23.6214C6.629 23.7552 6.65507 23.8889 6.68114 24.0202H6.67853ZM9.53581 30.3211L21.5854 21.2183L9.29075 29.9969C9.37157 30.1075 9.45239 30.2156 9.53581 30.3211ZM10.6881 31.6384L21.588 21.2183L10.4066 31.3451C10.4978 31.4454 10.5943 31.5406 10.6881 31.6384ZM8.54515 28.8803L21.588 21.2183L8.3418 28.5304C8.40958 28.6487 8.47737 28.7645 8.54515 28.8803ZM31.4946 32.5595L21.588 21.2183L31.1844 32.8219C31.2887 32.737 31.393 32.647 31.4973 32.5595H31.4946ZM36.1847 25.3169L21.588 21.2183L36.0726 25.7054C36.1143 25.5767 36.1482 25.4455 36.1873 25.3169H36.1847ZM35.6059 26.9635L21.588 21.2183L35.4417 27.334C35.4964 27.2105 35.5538 27.087 35.6059 26.9635ZM34.8316 28.5304L21.5854 21.2183L34.6257 28.8803C34.6961 28.7645 34.7638 28.6487 34.829 28.5304H34.8316ZM36.5679 23.6214L21.588 21.2183L36.4975 24.0202C36.5236 23.8889 36.547 23.7552 36.5705 23.6214H36.5679ZM36.7217 22.2886C36.7321 22.1548 36.7399 22.021 36.7478 21.8847L21.588 21.2157L36.7217 22.2861V22.2886ZM23.5537 36.0663L21.588 21.2183L23.147 36.1177C23.2852 36.1049 23.4181 36.0843 23.5537 36.0663ZM33.8801 29.9969L21.5854 21.2183L33.635 30.3211C33.7184 30.213 33.7992 30.105 33.8801 29.9969ZM26.9663 35.225L21.5854 21.2183L26.5804 35.3613C26.7108 35.3176 26.8385 35.2713 26.9663 35.2224V35.225ZM28.5774 34.5123L21.5828 21.2183L28.2098 34.695C28.3323 34.6358 28.4549 34.574 28.5748 34.5097L28.5774 34.5123ZM25.2821 35.7472L21.5854 21.2183L24.8833 35.8373C25.0162 35.809 25.1518 35.7781 25.2821 35.7472ZM30.0947 33.6221L21.5854 21.2183L29.7506 33.8408C29.8653 33.7687 29.9826 33.6967 30.0947 33.6221ZM32.7669 31.3451L21.5854 21.2183L32.4827 31.6384C32.5792 31.5406 32.673 31.4454 32.7643 31.3451H32.7669ZM6.45172 22.2886L21.588 21.2183L6.42826 21.8873C6.43347 22.0236 6.4439 22.1574 6.45433 22.2912L6.45172 22.2886ZM6.60553 18.8127L21.5854 21.2157L6.67592 18.4139C6.64985 18.5477 6.62639 18.6789 6.60293 18.8127H6.60553ZM29.7506 8.5933L21.5854 21.2183L30.0947 8.81457C29.9826 8.73995 29.8653 8.66791 29.7506 8.59587V8.5933ZM28.215 7.73911L21.588 21.2157L28.5826 7.92179C28.4627 7.86004 28.3402 7.79571 28.2176 7.73654L28.215 7.73911ZM31.1818 9.61215L21.588 21.2157L31.4946 9.87201C31.3904 9.78453 31.2887 9.69448 31.1818 9.60958V9.61215ZM24.8859 6.59676L21.588 21.2183L25.2847 6.68939C25.1518 6.65594 25.0188 6.62764 24.8859 6.59934V6.59676ZM26.583 7.07274L21.588 21.2183L26.9689 7.21168C26.8411 7.16279 26.7134 7.11905 26.583 7.07274ZM23.147 6.31632L21.588 21.2157L23.5537 6.36521C23.4181 6.3472 23.2826 6.32919 23.147 6.31375V6.31632ZM32.4853 10.7957L21.588 21.2157L32.7695 11.089C32.6782 10.9912 32.5818 10.8934 32.4879 10.7957H32.4853ZM36.4949 18.4139L21.5854 21.2157L36.5653 18.8127C36.5444 18.6789 36.5184 18.5477 36.4923 18.4139H36.4949ZM36.0699 16.7287L21.5854 21.2183L36.182 17.1198C36.1455 16.9911 36.109 16.8599 36.0673 16.7313L36.0699 16.7287ZM33.635 12.113L21.5854 21.2183L33.8801 12.4397C33.7992 12.3317 33.7184 12.221 33.635 12.1155V12.113ZM36.7191 20.1454L21.5854 21.2183L36.7452 20.5494C36.7399 20.413 36.7295 20.2792 36.7191 20.1454ZM35.4391 15.1001L21.5854 21.2157L35.6033 15.4706C35.5511 15.3471 35.4938 15.2236 35.4391 15.1001ZM34.6257 13.5538L21.5854 21.2157L34.8316 13.9037C34.7638 13.7853 34.6961 13.6696 34.6283 13.5538H34.6257ZM11.6762 9.87458L21.5828 21.2183L11.989 9.61473C11.8821 9.69963 11.7804 9.78711 11.6762 9.87716V9.87458ZM21.5828 6.23914C21.515 6.23914 21.4472 6.24428 21.3768 6.24428L21.5828 21.2183L21.7888 6.24428C21.721 6.24428 21.6532 6.23914 21.5828 6.23914ZM10.4013 11.0915L21.5828 21.2183L10.6855 10.7982C10.589 10.896 10.4952 10.9912 10.4039 11.0915H10.4013ZM8.33659 13.9063L21.5828 21.2183L8.53993 13.5563C8.46954 13.6721 8.40176 13.7879 8.33659 13.9063ZM9.28815 12.4397L21.5828 21.2183L9.5332 12.113C9.44978 12.221 9.36896 12.3291 9.28815 12.4372V12.4397ZM7.56231 15.4731L21.5828 21.2183L7.72915 15.1026C7.67441 15.2261 7.61705 15.3496 7.56491 15.4731H7.56231ZM6.98355 17.1198L21.5802 21.2183L7.09565 16.7287C7.05394 16.8573 7.02005 16.9885 6.98094 17.1172L6.98355 17.1198ZM6.42044 20.5494L21.5802 21.2183L6.44651 20.1454C6.43608 20.2792 6.42565 20.413 6.42044 20.5494ZM19.6145 6.36778L21.5828 21.2183L20.0238 6.31889C19.8856 6.33176 19.7527 6.35234 19.6171 6.37035L19.6145 6.36778ZM17.8835 6.68681L21.5802 21.2157L18.2823 6.59419C18.1494 6.62249 18.0138 6.65337 17.8835 6.68424V6.68681ZM13.0709 8.81199L21.5802 21.2157L13.415 8.59073C13.3003 8.66277 13.183 8.73481 13.0709 8.80942V8.81199ZM14.5856 7.92436L21.5802 21.2183L14.9506 7.74169C14.828 7.80086 14.7055 7.86261 14.5856 7.92693V7.92436ZM16.1967 7.2091L21.5802 21.2157L16.5826 7.07017C16.4522 7.11391 16.3245 7.16022 16.1967 7.2091Z" fill="url(#paint7_radial_63_548)"/>
<path d="M19.1853 27.5L14.9136 25.0855L10.6548 27.5L11.7419 22.8905L8.02016 19.7687L12.9569 19.3297L14.9136 15.0006L16.8832 19.3297L21.8071 19.7687L18.0854 22.8905L19.1853 27.5Z" fill="#FFD700"/>
<path d="M32.9722 27.5L28.7006 25.0855L24.4417 27.5L25.5288 22.8905L21.8071 19.7687L26.7438 19.3297L28.7006 15.0006L30.6701 19.3297L35.594 19.7687L31.8723 22.8905L32.9722 27.5Z" fill="#FFD700"/>
</g>
<defs>
<linearGradient id="paint0_linear_63_548" x1="19.0097" y1="39.311" x2="39.128" y2="39.311" gradientUnits="userSpaceOnUse">
<stop stop-color="#D5D5D5"/>
<stop offset="0.05" stop-color="#E0E0E0"/>
<stop offset="0.21" stop-color="white"/>
<stop offset="0.45" stop-color="#272727"/>
<stop offset="0.67" stop-color="#B7B7B7"/>
<stop offset="1" stop-color="#D5D5D5"/>
</linearGradient>
<linearGradient id="paint1_linear_63_548" x1="4.22273" y1="40.147" x2="24.341" y2="40.147" gradientUnits="userSpaceOnUse">
<stop stop-color="#D5D5D5"/>
<stop offset="0.05" stop-color="#E0E0E0"/>
<stop offset="0.21" stop-color="white"/>
<stop offset="0.45" stop-color="#272727"/>
<stop offset="0.67" stop-color="#B7B7B7"/>
<stop offset="1" stop-color="#D5D5D5"/>
</linearGradient>
<radialGradient id="paint2_radial_63_548" cx="0" cy="0" r="1" gradientUnits="userSpaceOnUse" gradientTransform="translate(14.5595 6.81808) scale(39.7595 39.2387)">
<stop stop-color="#2C3C4F"/>
<stop offset="0.52" stop-color="#0D1D30"/>
<stop offset="1" stop-color="#060D29"/>
</radialGradient>
<linearGradient id="paint3_linear_63_548" x1="7.53884" y1="5.6088" x2="38.9494" y2="41.3353" gradientUnits="userSpaceOnUse">
<stop stop-color="#D5D5D5"/>
<stop offset="0.05" stop-color="#E0E0E0"/>
<stop offset="0.21" stop-color="white"/>
<stop offset="0.45" stop-color="#272727"/>
<stop offset="0.67" stop-color="#B7B7B7"/>
<stop offset="1" stop-color="#D5D5D5"/>
</linearGradient>
<linearGradient id="paint4_linear_63_548" x1="11.0844" y1="12.5992" x2="31.6145" y2="29.8977" gradientUnits="userSpaceOnUse">
<stop stop-color="#D5D5D5"/>
<stop offset="0.05" stop-color="#E0E0E0"/>
<stop offset="0.21" stop-color="white"/>
<stop offset="0.45" stop-color="#272727"/>
<stop offset="0.67" stop-color="#B7B7B7"/>
<stop offset="1" stop-color="#D5D5D5"/>
</linearGradient>
<radialGradient id="paint5_radial_63_548" cx="0" cy="0" r="1" gradientUnits="userSpaceOnUse" gradientTransform="translate(31.8883 36.2259) scale(34.7175 34.2628)">
<stop offset="0.06" stop-color="#2C3C4F"/>
<stop offset="0.52" stop-color="#0D1D30"/>
<stop offset="1" stop-color="#060D29"/>
</radialGradient>
<radialGradient id="paint6_radial_63_548" cx="0" cy="0" r="1" gradientUnits="userSpaceOnUse" gradientTransform="translate(37.7228 25.3658) scale(35.4501 34.9857)">
<stop stop-color="#CBCBCB"/>
<stop offset="0.14" stop-color="#6D6D6D"/>
<stop offset="0.25" stop-color="#4B4B4B"/>
<stop offset="0.36" stop-color="#303030"/>
<stop offset="0.48" stop-color="#1A1A1A"/>
<stop offset="0.61" stop-color="#0B0B0B"/>
<stop offset="0.77" stop-color="#020202"/>
<stop offset="1"/>
</radialGradient>
<radialGradient id="paint7_radial_63_548" cx="0" cy="0" r="1" gradientUnits="userSpaceOnUse" gradientTransform="translate(7.1504 4.3558) scale(32.6189 32.1916)">
<stop stop-color="#CBCBCB"/>
<stop offset="0.14" stop-color="#6D6D6D"/>
<stop offset="0.25" stop-color="#4B4B4B"/>
<stop offset="0.36" stop-color="#303030"/>
<stop offset="0.48" stop-color="#1A1A1A"/>
<stop offset="0.61" stop-color="#0B0B0B"/>
<stop offset="0.77" stop-color="#020202"/>
<stop offset="1"/>
</radialGradient>
<clipPath id="clip0_63_548">
<rect width="43" height="55" fill="white" transform="translate(0.0880127)"/>
</clipPath>
</defs>
</svg>
