<?xml version="1.0" encoding="UTF-8"?>
<svg id="Layer_2" data-name="Layer 2" xmlns="http://www.w3.org/2000/svg" xmlns:xlink="http://www.w3.org/1999/xlink" viewBox="0 0 2208.49 364.79">
  <defs>
    <style>
      .cls-1 {
        fill: url(#radial-gradient-8);
      }

      .cls-1, .cls-2, .cls-3, .cls-4, .cls-5, .cls-6, .cls-7, .cls-8, .cls-9 {
        stroke-width: 0px;
      }

      .cls-2 {
        fill: #fff;
      }

      .cls-3 {
        fill: url(#radial-gradient-2);
      }

      .cls-4 {
        fill: url(#radial-gradient-7);
      }

      .cls-5 {
        fill: url(#radial-gradient-5);
      }

      .cls-6 {
        fill: url(#radial-gradient);
      }

      .cls-7 {
        fill: url(#radial-gradient-6);
      }

      .cls-8 {
        fill: url(#radial-gradient-3);
      }

      .cls-9 {
        fill: url(#radial-gradient-4);
      }
    </style>
    <radialGradient id="radial-gradient" cx="-9.3" cy="328.52" fx="-9.3" fy="328.52" r="465.36" gradientUnits="userSpaceOnUse">
      <stop offset=".15" stop-color="#241157"/>
      <stop offset=".45" stop-color="#4c1ca6"/>
      <stop offset=".69" stop-color="#9423b6"/>
    </radialGradient>
    <radialGradient id="radial-gradient-2" cx="-9.3" cy="328.52" fx="-9.3" fy="328.52" r="465.36" xlink:href="#radial-gradient"/>
    <radialGradient id="radial-gradient-3" cx="-9.3" fx="-9.3" r="465.36" xlink:href="#radial-gradient"/>
    <radialGradient id="radial-gradient-4" r="465.36" xlink:href="#radial-gradient"/>
    <radialGradient id="radial-gradient-5" cx="-9.3" cy="328.52" fx="-9.3" fy="328.52" r="465.36" xlink:href="#radial-gradient"/>
    <radialGradient id="radial-gradient-6" cx="-9.3" cy="328.52" fx="-9.3" fy="328.52" r="465.36" xlink:href="#radial-gradient"/>
    <radialGradient id="radial-gradient-7" cx="-9.3" cy="328.52" fx="-9.3" fy="328.52" r="465.36" xlink:href="#radial-gradient"/>
    <radialGradient id="radial-gradient-8" cx="-9.3" cy="328.52" fx="-9.3" fy="328.52" r="465.36" xlink:href="#radial-gradient"/>
  </defs>
  <g id="Layer_1-2" data-name="Layer 1">
    <g>
      <path class="cls-2" d="m440.42,289.03c-12.97-5.31-23.33-13.17-31.08-23.59-7.76-10.41-11.85-22.95-12.27-37.62h58.02c.85,8.29,3.72,14.61,8.61,18.97,4.89,4.36,11.26,6.54,19.13,6.54s14.45-1.86,19.13-5.58c4.67-3.72,7.01-8.87,7.01-15.46,0-5.52-1.86-10.09-5.58-13.71-3.72-3.61-8.29-6.58-13.71-8.93-5.42-2.34-13.12-4.99-23.11-7.97-14.46-4.46-26.25-8.93-35.39-13.39-9.14-4.46-17.01-11.05-23.59-19.77-6.59-8.71-9.88-20.08-9.88-34.11,0-20.83,7.54-37.14,22.63-48.93,15.09-11.8,34.75-17.69,58.98-17.69s44.52,5.9,59.61,17.69c15.09,11.8,23.16,28.21,24.23,49.25h-58.98c-.43-7.22-3.08-12.91-7.97-17.06-4.89-4.14-11.16-6.22-18.81-6.22-6.59,0-11.9,1.75-15.94,5.26-4.04,3.51-6.06,8.56-6.06,15.14,0,7.23,3.4,12.86,10.2,16.9,6.8,4.04,17.42,8.4,31.88,13.07,14.45,4.89,26.19,9.56,35.23,14.03,9.03,4.46,16.84,10.95,23.43,19.45,6.58,8.5,9.88,19.45,9.88,32.83s-3.24,24.34-9.72,34.75c-6.49,10.42-15.89,18.7-28.21,24.87-12.33,6.17-26.89,9.25-43.67,9.25s-31.03-2.66-43.99-7.97Z"/>
      <path class="cls-2" d="m653.06,70.98v133.89c0,13.39,3.29,23.7,9.88,30.92,6.58,7.23,16.26,10.84,29.01,10.84s22.52-3.61,29.33-10.84c6.8-7.22,10.2-17.53,10.2-30.92V70.98h54.51v133.57c0,19.98-4.25,36.88-12.75,50.69-8.5,13.82-19.92,24.23-34.27,31.24-14.35,7.01-30.34,10.52-47.98,10.52s-33.42-3.45-47.34-10.36c-13.92-6.9-24.92-17.32-33-31.24-8.08-13.92-12.11-30.87-12.11-50.85V70.98h54.51Z"/>
      <path class="cls-2" d="m878.76,252.69h71.41v42.08h-125.92V70.98h54.51v181.71Z"/>
      <path class="cls-2" d="m1229.74,70.98v223.79h-54.51v-134.21l-50.05,134.21h-43.99l-50.37-134.53v134.53h-54.51V70.98h64.4l62.8,154.93,62.17-154.93h64.08Z"/>
      <path class="cls-2" d="m1323.47,70.98v223.79h-54.51V70.98h54.51Z"/>
      <path class="cls-2" d="m1563.2,294.77h-54.51l-91.17-138.04v138.04h-54.51V70.98h54.51l91.17,138.67V70.98h54.51v223.79Z"/>
      <path class="cls-2" d="m1657.24,114.65v45.27h73v42.08h-73v49.09h82.57v43.67h-137.08V70.98h137.08v43.67h-82.57Z"/>
    </g>
    <g>
      <g>
        <path class="cls-6" d="m71.35,302.56c0-2.24,0-4.01,0-5.78,0-70.63,0-141.26-.1-211.89,0-2.12-.81-4.63-2.09-6.3C51.04,54.86,29.8,34.68,2.96,20.95c-.67-.34-1.37-.64-2.44-1.13-.12,1.18-.3,2.09-.3,3.01,0,70.3.21,140.6-.08,210.89-.12,29.51,20.1,55.96,47.73,64.92,7.53,2.44,15.2,3.82,23.48,3.91Z"/>
        <path class="cls-3" d="m88.07,105.35c-3.93,7.76-6.36,15.1-7.01,22.89-.49,5.85-.64,11.74-.64,17.62-.04,71.29-.02,142.57-.02,213.86,0,1.43,0,2.87,0,5.07,4.91-.57,9.6-.88,14.21-1.7,27.87-4.94,50.23-26.66,55.86-54.49,1-4.95,1.1-10.15,1.13-15.23.13-22.76.1-45.52.05-68.29,0-1.37-.36-2.89-1-4.1-15.09-28.64-30.14-57.3-45.42-85.84-5.28-9.86-11.14-19.4-17.15-29.8Z"/>
        <path class="cls-8" d="m151.49,207.6c0-47.13,0-93.37,0-139.99-7.33,0-14.24,1.13-21.03,3.19-14.78,4.49-26.88,12.84-36.38,25.02-1.62,2.08-1.89,3.73-.37,6.12,15.8,24.8,28.96,51.07,42.49,77.14,4.59,8.85,9.25,17.67,13.89,26.5.24.46.59.86,1.4,2.01Z"/>
        <path class="cls-9" d="m71.46,69.69c-.64-25.43-11.34-44.75-32.12-58.38C28.46,4.18,16.36.55,3.33,0,1.12-.08.17.44.12,2.84-.08,13.64-.95,11.2,7.73,15.85c18.86,9.3,35.07,22.37,49.32,37.83,4.71,5.11,9.3,10.33,14.4,16Z"/>
      </g>
      <g>
        <path class="cls-5" d="m231.52,302.56c0-2.24,0-4.01,0-5.78,0-70.63,0-141.26.1-211.89,0-2.12.81-4.63,2.09-6.3,18.11-23.73,39.36-43.9,66.19-57.64.67-.34,1.37-.64,2.44-1.13.12,1.18.3,2.09.3,3.01,0,70.3-.21,140.6.08,210.89.12,29.51-20.1,55.96-47.73,64.92-7.53,2.44-15.2,3.82-23.48,3.91Z"/>
        <path class="cls-7" d="m214.8,105.35c3.93,7.76,6.36,15.1,7.01,22.89.49,5.85.64,11.74.64,17.62.04,71.29.02,142.57.02,213.86,0,1.43,0,2.87,0,5.07-4.91-.57-9.6-.88-14.21-1.7-27.87-4.94-50.23-26.66-55.86-54.49-1-4.95-1.1-10.15-1.13-15.23-.13-22.76-.1-45.52-.05-68.29,0-1.37.36-2.89,1-4.1,15.09-28.64,30.14-57.3,45.42-85.84,5.28-9.86,11.14-19.4,17.15-29.8Z"/>
        <path class="cls-4" d="m151.38,207.6V67.62c7.33,0,14.24,1.13,21.03,3.19,14.78,4.49,26.88,12.84,36.38,25.02,1.62,2.08,1.89,3.73.37,6.12-15.8,24.8-28.96,51.07-42.49,77.14-4.59,8.85-9.25,17.67-13.89,26.5-.24.46-.59.86-1.4,2.01Z"/>
        <path class="cls-1" d="m231.42,69.69c.64-25.43,11.34-44.75,32.12-58.38C274.42,4.18,286.52.55,299.54,0c2.21-.09,3.16.43,3.21,2.83.2,10.8,1.07,8.36-7.61,13.01-18.86,9.3-35.07,22.37-49.32,37.83-4.71,5.11-9.3,10.33-14.4,16Z"/>
      </g>
    </g>
    <g>
      <path class="cls-2" d="m1806.45,248.64c19.87-16.43,35.54-29.91,47-40.46,11.46-10.54,21.14-21.6,29.05-33.16,7.91-11.56,11.86-22.82,11.86-33.77,0-8.31-1.93-14.8-5.78-19.47-3.85-4.66-9.63-7-17.34-7s-13.74,2.89-18.1,8.67c-4.36,5.78-6.54,13.95-6.54,24.49h-50.19c.4-17.24,4.11-31.64,11.1-43.2,7-11.56,16.22-20.08,27.68-25.55,11.46-5.48,24.18-8.21,38.18-8.21,24.13,0,42.33,6.19,54.61,18.56,12.27,12.37,18.4,28.5,18.4,48.37,0,21.7-7.41,41.83-22.21,60.39-14.81,18.56-33.67,36.66-56.58,54.3h82.14v42.29h-152.71v-38.63c6.89-5.48,10.04-8.01,9.43-7.61Z"/>
      <path class="cls-2" d="m1979.7,286.71c-5.78-5.37-8.67-12.02-8.67-19.93s2.89-14.91,8.67-20.38c5.78-5.48,13.23-8.21,22.36-8.21s16.28,2.74,22.06,8.21c5.78,5.48,8.67,12.27,8.67,20.38s-2.89,14.55-8.67,19.93c-5.78,5.38-13.13,8.06-22.06,8.06s-16.58-2.69-22.36-8.06Z"/>
      <path class="cls-2" d="m2059.18,101.12c13.36-19.89,34.9-29.83,64.64-29.83s51.27,9.94,64.64,29.83c13.36,19.89,20.04,47.11,20.04,81.66s-6.68,62.38-20.04,82.27c-13.36,19.89-34.91,29.83-64.64,29.83s-51.28-9.94-64.64-29.83c-13.36-19.89-20.04-47.31-20.04-82.27s6.68-61.77,20.04-81.66Zm92.06,34.81c-4.42-10.95-13.56-16.42-27.42-16.42s-23.01,5.48-27.42,16.42c-4.42,10.95-6.63,26.57-6.63,46.86,0,13.66.8,24.96,2.41,33.9,1.61,8.94,4.87,16.17,9.79,21.7,4.92,5.53,12.2,8.29,21.85,8.29s16.92-2.76,21.85-8.29c4.92-5.52,8.18-12.76,9.79-21.7,1.61-8.94,2.41-20.24,2.41-33.9,0-20.29-2.21-35.91-6.63-46.86Z"/>
    </g>
  </g>
</svg>