<svg width="50" height="47" viewBox="0 0 50 47" fill="none" xmlns="http://www.w3.org/2000/svg">
<path d="M10.9739 18.3931C11.1243 18.0732 11.3285 17.7757 11.5952 17.5203L13.7612 15.4434C14.0271 15.1877 14.337 14.9918 14.6705 14.8475L12.2065 12.4841L14.9523 9.85095C15.2394 9.57556 15.4009 9.20264 15.4009 8.8125C15.4009 8.42236 15.2394 8.04944 14.9523 7.77405L11.8898 4.83655C11.3156 4.28577 10.2987 4.28577 9.72449 4.83655C5.48514 8.90286 3.15088 14.3088 3.15088 20.0591V23.5C3.15088 24.2573 3.75052 24.8899 4.53558 24.9616C4.58568 24.9659 4.63428 24.9688 4.68362 24.9688C5.40887 24.9688 6.0444 24.4753 6.18571 23.7797L6.42946 22.5734C6.91452 20.1697 7.72949 18.0808 8.84101 16.3473L10.9739 18.3931Z" fill="#9A9A9C"/>
<path d="M39.4523 4.83655C39.1652 4.56116 38.7756 4.40625 38.3696 4.40625C37.9636 4.40625 37.5741 4.56116 37.287 4.83655L34.2245 7.77405C33.9374 8.04944 33.7759 8.42236 33.7759 8.8125C33.7759 9.20264 33.9374 9.57556 34.2245 9.85095L36.9703 12.4841L34.5064 14.8474C34.8399 14.9918 35.1501 15.1877 35.4163 15.4434L37.5816 17.5203C37.8482 17.7757 38.0524 18.0732 38.2029 18.3931L40.3357 16.3473C41.4473 18.0808 42.2622 20.1697 42.7473 22.5734L42.991 23.7797C43.1324 24.4753 43.7679 24.9688 44.4931 24.9688C44.5417 24.9688 44.5918 24.9659 44.6412 24.9616C45.4262 24.8899 46.0259 24.2573 46.0259 23.5V20.0591C46.0259 14.3088 43.6916 8.90286 39.4523 4.83655Z" fill="#9A9A9C"/>
<path d="M38.3696 24.9688H36.4369C36.1478 23.8935 35.707 22.8796 35.1326 21.9466L36.4987 20.6363C37.0967 20.0627 37.0967 19.1327 36.4987 18.5592L34.3332 16.482C33.7352 15.9085 32.7657 15.9085 32.1677 16.482L30.8016 17.7924C29.829 17.2414 28.7719 16.8186 27.6509 16.5414V14.6875C27.6509 13.8763 26.9653 13.2188 26.1196 13.2188H23.0571C22.2114 13.2188 21.5259 13.8763 21.5259 14.6875V16.5414C20.4048 16.8186 19.3478 17.2414 18.3752 17.7924L17.009 16.482C16.4111 15.9085 15.4415 15.9085 14.8436 16.482L12.678 18.5592C12.0801 19.1327 12.0801 20.0627 12.678 20.6363L14.0441 21.9466C13.4697 22.8796 13.029 23.8935 12.7399 24.9688H10.8071C9.96141 24.9688 9.27588 25.6263 9.27588 26.4375V29.375C9.27588 30.1861 9.96141 30.8438 10.8071 30.8438H12.7399C13.029 31.919 13.4697 32.9329 14.0441 33.8658L12.678 35.1761C12.0801 35.7498 12.0801 36.6798 12.678 37.2533L14.8436 39.3304C15.4415 39.904 16.4111 39.904 17.009 39.3304L18.3752 38.02C19.3478 38.571 20.4048 38.9939 21.5259 39.2711V41.125C21.5259 41.9361 22.2114 42.5938 23.0571 42.5938H26.1196C26.9653 42.5938 27.6509 41.9361 27.6509 41.125V39.2711C28.7719 38.9939 29.829 38.571 30.8016 38.02L32.1677 39.3304C32.7657 39.904 33.7352 39.904 34.3332 39.3304L36.4987 37.2533C37.0967 36.6798 37.0967 35.7498 36.4987 35.1761L35.1326 33.8658C35.707 32.9329 36.1478 31.919 36.4369 30.8438H38.3696C39.2153 30.8438 39.9009 30.1861 39.9009 29.375V26.4375C39.9009 25.6263 39.2153 24.9688 38.3696 24.9688ZM24.5884 35.25C20.36 35.25 16.9321 31.9621 16.9321 27.9062C16.9321 23.8504 20.36 20.5625 24.5884 20.5625C28.8168 20.5625 32.2446 23.8504 32.2446 27.9062C32.2446 31.9621 28.8168 35.25 24.5884 35.25Z" fill="#9A9A9C"/>
<path d="M24.5884 33.7812C21.2111 33.7812 18.4634 31.1464 18.4634 27.9062C18.4634 24.6661 21.2111 22.0312 24.5884 22.0312C27.9657 22.0312 30.7134 24.6661 30.7134 27.9062C30.7134 31.1464 27.9657 33.7812 24.5884 33.7812Z" fill="#9A9A9C"/>
</svg>
