<svg width="44" height="56" viewBox="0 0 44 56" fill="none" xmlns="http://www.w3.org/2000/svg">
<g clip-path="url(#clip0_63_573)">
<path d="M28.6115 24.7507L19.0099 28.5457L29.5266 54.4595L32.9783 49.2443L39.1282 50.6646L28.6115 24.7507Z" fill="#E5E4E2"/>
<path style="mix-blend-mode:screen" d="M28.5461 24.8976L38.9377 50.5053L33.0041 49.134L32.9259 49.1159L32.8816 49.1828L29.5472 54.2179L19.1557 28.6103L28.5435 24.9002M28.6061 24.7535L19.0045 28.5485L29.5211 54.4623L32.9754 49.2472L39.1228 50.6699L28.6061 24.7561V24.7535Z" fill="url(#paint0_linear_63_573)"/>
<path d="M14.7394 25.5872L24.341 29.3821L13.8243 55.296L10.3701 50.0808L4.22273 51.501L14.7394 25.5872Z" fill="#E5E4E2"/>
<path style="mix-blend-mode:screen" d="M14.802 25.7336L24.1898 29.4436L13.7983 55.0513L10.4639 50.0162L10.4196 49.9493L10.3414 49.9673L4.40783 51.3387L14.7994 25.731M14.7368 25.5844L4.22273 51.5008L10.3701 50.0805L13.8243 55.2957L24.341 29.3819L14.7394 25.5869L14.7368 25.5844Z" fill="url(#paint1_linear_63_573)"/>
<path d="M43.088 21.514C43.088 33.2308 33.4629 42.7324 21.588 42.7324C9.71309 42.7324 0.0880127 33.2308 0.0880127 21.514C0.0880127 9.79722 9.71309 0.295654 21.588 0.295654C33.4629 0.295654 43.088 9.79465 43.088 21.514Z" fill="#E5E4E2"/>
<path d="M0.583344 21.5141C0.583344 10.0648 9.98682 0.784546 21.588 0.784546C33.1892 0.784546 42.5927 10.0648 42.5927 21.5141C42.5927 32.9633 33.1892 42.2436 21.588 42.2436C9.98682 42.2436 0.583344 32.9607 0.583344 21.5141Z" fill="#E5E4E2"/>
<path d="M42.1365 21.514C42.1365 32.7137 32.9363 41.7933 21.588 41.7933C10.2397 41.7933 1.03696 32.7137 1.03696 21.514C1.03696 10.3144 10.2371 1.23218 21.588 1.23218C32.9389 1.23218 42.1365 10.3118 42.1365 21.5114V21.514Z" fill="url(#paint2_radial_63_573)"/>
<path d="M20.7277 40.6972C20.6026 40.6921 20.5035 40.5866 20.5061 40.4605C20.5139 40.3344 20.6182 40.2367 20.7459 40.2444C20.8737 40.2495 20.9728 40.355 20.9675 40.4811C20.9623 40.6046 20.8607 40.6998 20.7381 40.6998C20.7381 40.6998 20.7303 40.6998 20.7277 40.6998V40.6972ZM23.9526 40.3499C23.9369 40.2238 24.023 40.108 24.1507 40.0926C24.2758 40.0772 24.3932 40.1621 24.4114 40.2881C24.427 40.4116 24.3384 40.5248 24.2133 40.5428C24.2133 40.5428 24.1924 40.5428 24.182 40.5428C24.0699 40.5428 23.9708 40.4605 23.9552 40.3473L23.9526 40.3499ZM17.2708 40.2444C17.1483 40.2135 17.0701 40.0952 17.0987 39.9717C17.1274 39.8482 17.2499 39.771 17.3725 39.7993C17.4976 39.8276 17.5758 39.9485 17.5471 40.072C17.5211 40.1775 17.4272 40.2495 17.3203 40.2495C17.3047 40.2495 17.2891 40.2495 17.2708 40.2444ZM27.3234 39.6346C27.2843 39.5137 27.3495 39.3876 27.4694 39.349C27.592 39.3104 27.7197 39.3748 27.7588 39.4931C27.7979 39.6115 27.7301 39.7401 27.6128 39.7787C27.5867 39.7864 27.5633 39.789 27.5424 39.789C27.446 39.789 27.3573 39.7273 27.3234 39.6321V39.6346ZM13.9547 39.1844C13.8374 39.1355 13.7826 39.0017 13.8322 38.8859C13.8817 38.7727 14.0147 38.7187 14.132 38.7676C14.2493 38.8165 14.304 38.9503 14.2545 39.066C14.218 39.1509 14.132 39.205 14.0433 39.205C14.012 39.205 13.9808 39.1972 13.9547 39.187V39.1844ZM30.5066 38.3353C30.4466 38.2247 30.4883 38.0883 30.6004 38.0266C30.7099 37.9674 30.8507 38.0086 30.9107 38.1192C30.9706 38.2273 30.9289 38.3662 30.8194 38.4254C30.7855 38.446 30.7464 38.4537 30.7099 38.4537C30.6291 38.4537 30.5483 38.41 30.5066 38.3353ZM10.8836 37.5532C10.7794 37.4837 10.7507 37.3422 10.8185 37.2393C10.8888 37.1338 11.0322 37.1081 11.1365 37.175C11.2434 37.2444 11.2721 37.386 11.2017 37.4889C11.1574 37.5558 11.0844 37.5918 11.0114 37.5918C10.9671 37.5918 10.9227 37.5789 10.8862 37.5532H10.8836ZM33.403 36.4932C33.3222 36.3954 33.3378 36.2539 33.4395 36.1767C33.5385 36.097 33.6819 36.1124 33.7601 36.2102C33.841 36.3079 33.8253 36.452 33.7236 36.5292C33.6819 36.5626 33.6324 36.5806 33.5803 36.5806C33.5125 36.5806 33.4473 36.5498 33.4004 36.4932H33.403ZM8.1541 35.41C8.06285 35.3251 8.05764 35.1784 8.14367 35.0884C8.2297 34.9983 8.3783 34.9958 8.46955 35.0807C8.55818 35.1656 8.5634 35.3122 8.47737 35.3997C8.43044 35.4486 8.37048 35.4692 8.31052 35.4692C8.25577 35.4692 8.19842 35.4486 8.1541 35.4074V35.41ZM35.9187 34.1725C35.8249 34.0875 35.8145 33.946 35.8979 33.8534C35.9813 33.7582 36.1247 33.7479 36.2212 33.8303C36.315 33.9152 36.3254 34.0567 36.242 34.1493C36.1951 34.2008 36.1351 34.2291 36.0699 34.2291C36.0178 34.2291 35.9631 34.2085 35.9187 34.1725ZM5.85211 32.8217C5.77651 32.7188 5.79997 32.5799 5.90164 32.5052C6.00592 32.4332 6.1467 32.4538 6.2223 32.5567C6.29791 32.6596 6.27444 32.7985 6.17277 32.8732C6.13106 32.9015 6.08413 32.9169 6.03721 32.9169C5.96682 32.9169 5.89643 32.886 5.85211 32.8243V32.8217ZM37.9783 31.4452C37.8714 31.3809 37.8323 31.242 37.9001 31.1339C37.9652 31.0284 38.106 30.9924 38.2155 31.0541C38.3224 31.121 38.3589 31.2574 38.2937 31.368C38.252 31.4375 38.1738 31.4761 38.0956 31.4761C38.0565 31.4761 38.0148 31.4658 37.9783 31.4452ZM4.05588 29.8706C4.00113 29.76 4.04806 29.6236 4.16277 29.5696C4.27748 29.5156 4.41565 29.5593 4.47039 29.6751C4.52514 29.7883 4.47821 29.9247 4.3609 29.9787C4.32962 29.9916 4.29572 30.0018 4.26183 30.0018C4.17319 30.0018 4.09498 29.953 4.05327 29.8732L4.05588 29.8706ZM39.5112 28.399C39.3913 28.3552 39.3313 28.224 39.3756 28.1082C39.4226 27.9899 39.5555 27.9307 39.6728 27.9744C39.7928 28.0182 39.8527 28.1494 39.8084 28.2677C39.7745 28.3578 39.6859 28.4144 39.592 28.4144C39.5633 28.4144 39.5399 28.4092 39.5112 28.399ZM2.82798 26.652C2.79409 26.5285 2.86448 26.405 2.98701 26.3741C3.10954 26.3407 3.23728 26.4101 3.26856 26.5311C3.30245 26.6546 3.23206 26.7781 3.10954 26.8089C3.08868 26.8166 3.06782 26.8192 3.04697 26.8192C2.94529 26.8192 2.85405 26.7523 2.82537 26.6546L2.82798 26.652ZM40.468 25.134C40.3428 25.1108 40.2594 24.9925 40.2829 24.8716C40.3063 24.7481 40.4263 24.6657 40.5488 24.6889C40.6739 24.712 40.7547 24.8304 40.7339 24.9513C40.713 25.062 40.6166 25.1391 40.5071 25.1391C40.494 25.1391 40.4784 25.1391 40.468 25.134ZM2.2049 23.2661C2.19448 23.1426 2.28833 23.032 2.41346 23.0217C2.5386 23.0114 2.65331 23.1014 2.66374 23.2249C2.67417 23.351 2.58031 23.4616 2.45518 23.4719H2.43432C2.317 23.4719 2.21533 23.3845 2.2049 23.2661ZM40.5827 21.5243V21.5011V21.4805C40.5827 21.3545 40.687 21.2541 40.8121 21.2516C40.9372 21.2516 41.0415 21.3545 41.0415 21.478V21.4985V21.5243C41.0415 21.6478 40.9372 21.7507 40.8121 21.7507C40.687 21.7507 40.5827 21.6478 40.5827 21.5243ZM2.41086 20.0706C2.28572 20.0603 2.18926 19.9471 2.2023 19.8236C2.21272 19.7001 2.32483 19.6075 2.44996 19.6204C2.5751 19.6307 2.67156 19.7413 2.65852 19.8648C2.64809 19.9831 2.54903 20.0706 2.42911 20.0706H2.41086ZM40.2724 18.1333C40.249 18.0098 40.3324 17.8914 40.4575 17.8682C40.5827 17.8451 40.7 17.9274 40.7235 18.0509C40.7469 18.1744 40.6635 18.2902 40.5384 18.3133C40.5253 18.3133 40.5097 18.3185 40.494 18.3185C40.3872 18.3185 40.2881 18.2413 40.2698 18.1333H40.2724ZM2.98179 16.7053C2.85666 16.6744 2.78627 16.5484 2.81755 16.4274C2.85144 16.3065 2.97919 16.2371 3.09911 16.2679C3.22164 16.3014 3.29463 16.4274 3.26074 16.5458C3.23206 16.6487 3.14082 16.713 3.03915 16.713C3.01829 16.713 2.99743 16.713 2.97919 16.7027L2.98179 16.7053ZM39.3652 14.8863C39.3183 14.768 39.3782 14.6393 39.4982 14.593C39.6181 14.5467 39.7484 14.6059 39.7954 14.7242C39.8397 14.8426 39.7797 14.9738 39.6624 15.0175C39.6337 15.0278 39.6077 15.033 39.579 15.033C39.4877 15.033 39.3991 14.9764 39.3652 14.8863ZM4.14973 13.5047C4.03502 13.4506 3.98549 13.3143 4.04284 13.2011C4.09759 13.0879 4.23576 13.0416 4.35047 13.0956C4.46518 13.1496 4.51471 13.286 4.45736 13.3992C4.41565 13.4815 4.33483 13.5278 4.2488 13.5278C4.21751 13.5278 4.18102 13.5175 4.14973 13.5047ZM37.8792 11.8632C37.814 11.7551 37.8505 11.6162 37.9574 11.5493C38.0669 11.485 38.2077 11.521 38.2729 11.6291C38.338 11.7345 38.3041 11.8735 38.1921 11.9404C38.1556 11.9635 38.1164 11.9713 38.0747 11.9713C37.9965 11.9713 37.9209 11.9327 37.8766 11.8632H37.8792ZM5.88079 10.5613C5.7765 10.4893 5.75565 10.3452 5.83125 10.2449C5.90425 10.1445 6.04763 10.1239 6.14931 10.196C6.25359 10.2706 6.27444 10.4121 6.19884 10.5124C6.15452 10.5742 6.08413 10.6051 6.01374 10.6051C5.96682 10.6051 5.91989 10.5922 5.88079 10.5613ZM35.8718 9.14883C35.7858 9.0562 35.7988 8.90955 35.8927 8.82979C35.9865 8.74489 36.1351 8.75775 36.2159 8.85037C36.2994 8.94557 36.2889 9.08965 36.1951 9.16941C36.1508 9.208 36.096 9.22601 36.0439 9.22601C35.9787 9.22601 35.9187 9.19771 35.8718 9.14883ZM8.11499 7.97303C8.02635 7.88298 8.02896 7.73633 8.12281 7.65142C8.21406 7.56652 8.36005 7.56909 8.44608 7.65914C8.53472 7.74919 8.53211 7.89327 8.44087 7.98075C8.39394 8.02191 8.33659 8.0425 8.27923 8.0425C8.21927 8.0425 8.15931 8.01934 8.11499 7.97303ZM33.4056 6.83068C33.3039 6.75349 33.2883 6.60941 33.3691 6.51422C33.4473 6.41645 33.5907 6.40101 33.6897 6.4782C33.7888 6.55538 33.8045 6.69946 33.7262 6.79466C33.6793 6.85126 33.6141 6.87956 33.5464 6.87956C33.4942 6.87956 33.4447 6.86413 33.403 6.83068H33.4056ZM10.7794 5.8144C10.709 5.71149 10.7376 5.56998 10.8445 5.50308C10.9488 5.43362 11.0922 5.46192 11.1626 5.56741C11.2304 5.67289 11.2043 5.81183 11.0974 5.88129C11.0583 5.9096 11.0114 5.91989 10.9697 5.91989C10.8967 5.91989 10.8237 5.88387 10.7794 5.81697V5.8144ZM30.5613 4.98337C30.4518 4.92419 30.4101 4.78526 30.4701 4.6772C30.5301 4.56656 30.6682 4.5254 30.7803 4.58457C30.8924 4.64375 30.9341 4.78268 30.8742 4.89074C30.8325 4.96793 30.7516 5.01167 30.6708 5.01167C30.6343 5.01167 30.5978 5.00138 30.5639 4.98337H30.5613ZM13.7904 4.16263C13.7383 4.04685 13.7904 3.91306 13.9104 3.86417C14.0277 3.81529 14.1606 3.86932 14.2128 3.9851C14.2623 4.0983 14.2128 4.23209 14.0929 4.28098C14.0616 4.29384 14.0329 4.29899 14.0042 4.29899C13.9156 4.29899 13.8296 4.24753 13.7931 4.16263H13.7904ZM27.4251 3.66606C27.3026 3.62747 27.2374 3.5014 27.2765 3.38048C27.3156 3.26212 27.4434 3.1978 27.5659 3.2364C27.6884 3.27499 27.751 3.40106 27.7119 3.52198C27.6806 3.61718 27.592 3.67893 27.4929 3.67893C27.4694 3.67893 27.446 3.67893 27.4251 3.66864V3.66606ZM17.0518 3.06659C17.0231 2.94309 17.1014 2.82474 17.2239 2.79386C17.349 2.76556 17.4689 2.84532 17.5002 2.96367C17.5289 3.0846 17.4507 3.20809 17.3282 3.2364C17.3099 3.24154 17.2943 3.24411 17.276 3.24411C17.1717 3.24411 17.0753 3.17207 17.0518 3.06659ZM24.1038 2.92765C23.9786 2.90964 23.89 2.79644 23.9056 2.67294C23.9213 2.54687 24.036 2.46197 24.1637 2.4774C24.2915 2.49541 24.3775 2.60862 24.3619 2.73469C24.3488 2.84789 24.2498 2.93023 24.1351 2.93023H24.1038V2.92765ZM20.4618 2.56745C20.454 2.44396 20.553 2.3359 20.6808 2.33075C20.8059 2.32303 20.9154 2.4208 20.9206 2.54687C20.9284 2.67294 20.8294 2.77843 20.7016 2.78357C20.7016 2.78357 20.6938 2.78357 20.6912 2.78357C20.5687 2.78357 20.467 2.68838 20.4618 2.56488V2.56745Z" fill="url(#paint3_linear_63_573)"/>
<path d="M3.93335 21.514C3.93335 11.8915 11.8378 4.09058 21.588 4.09058C31.3382 4.09058 39.2427 11.8915 39.2427 21.514C39.2427 31.1365 31.3382 38.9374 21.588 38.9374C11.8378 38.9374 3.93335 31.1365 3.93335 21.514Z" fill="#E5E4E2"/>
<path d="M35.3374 21.514C35.3374 29.0087 29.1822 35.0832 21.588 35.0832C13.9938 35.0832 7.83865 29.0087 7.83865 21.514C7.83865 14.0192 13.9938 7.9447 21.588 7.9447C29.1822 7.9447 35.3374 14.0192 35.3374 21.514Z" fill="url(#paint4_linear_63_573)"/>
<path d="M5.20296 21.514C5.20296 12.5837 12.5391 5.34363 21.588 5.34363C30.6369 5.34363 37.9731 12.5837 37.9731 21.514C37.9731 30.4444 30.6369 37.6845 21.588 37.6845C12.5391 37.6845 5.20296 30.4444 5.20296 21.514Z" fill="url(#paint5_radial_63_573)"/>
<path d="M21.588 6.34705C13.0996 6.34705 6.2197 13.1368 6.2197 21.514C6.2197 29.8913 13.0996 36.681 21.588 36.681C30.0764 36.681 36.9563 29.8913 36.9563 21.514C36.9563 13.1368 30.0764 6.34705 21.588 6.34705ZM21.588 36.2951C13.316 36.2951 6.61075 29.6777 6.61075 21.514C6.61075 13.3504 13.316 6.73297 21.588 6.73297C29.8601 6.73297 36.5653 13.3504 36.5653 21.514C36.5653 29.6777 29.8601 36.2951 21.588 36.2951Z" fill="#E5E4E2"/>
<path style="mix-blend-mode:screen" opacity="0.8" d="M11.8091 34.489C16.1237 24.3365 24.4922 16.1496 34.829 11.9919C31.8492 7.9628 27.0288 5.34363 21.588 5.34363C12.5391 5.34363 5.20296 12.5837 5.20296 21.514C5.20296 26.827 7.79954 31.5405 11.8091 34.489Z" fill="url(#paint6_radial_63_573)"/>
<path style="mix-blend-mode:screen" opacity="0.8" d="M14.9584 34.9906L21.588 21.514L14.5934 34.8079C14.7133 34.8697 14.8359 34.934 14.9584 34.9932V34.9906ZM16.5904 35.657L21.588 21.514L16.2045 35.5206C16.3323 35.5695 16.46 35.6132 16.5904 35.6595V35.657ZM13.4203 34.1364L21.5854 21.514L13.0761 33.9177C13.1908 33.9923 13.3055 34.0644 13.4203 34.1364ZM11.9916 33.1176L21.588 21.514L11.6814 32.8551C11.7857 32.9426 11.8873 33.0327 11.9942 33.1176H11.9916ZM20.0264 36.4134L21.5854 21.514L19.6171 36.3619C19.7527 36.3799 19.8882 36.4005 20.0238 36.4134H20.0264ZM18.2875 36.1329L21.5854 21.514L17.8887 36.0429C18.0216 36.0763 18.1546 36.1046 18.2875 36.1329ZM7.73176 27.6271L21.5854 21.5114L7.56491 27.2566C7.61705 27.3827 7.67441 27.5036 7.72915 27.6271H7.73176ZM7.10347 26.001L21.588 21.514L6.99137 25.6125C7.02787 25.7412 7.06437 25.8724 7.10608 26.001H7.10347ZM21.588 36.4932C21.6558 36.4932 21.7236 36.488 21.794 36.488L21.588 21.514L21.3821 36.488C21.4498 36.488 21.5176 36.4932 21.588 36.4932ZM6.67853 24.3158L21.588 21.514L6.60814 23.917C6.629 24.0508 6.65507 24.1846 6.68114 24.3158H6.67853ZM9.53581 30.6167L21.5854 21.514L9.29075 30.2926C9.37157 30.4032 9.45239 30.5113 9.53581 30.6167ZM10.6881 31.934L21.588 21.514L10.4066 31.6407C10.4978 31.7411 10.5943 31.8363 10.6881 31.934ZM8.54515 29.1759L21.588 21.514L8.3418 28.826C8.40958 28.9444 8.47737 29.0602 8.54515 29.1759ZM31.4946 32.8551L21.588 21.514L31.1844 33.1176C31.2887 33.0327 31.393 32.9426 31.4973 32.8551H31.4946ZM36.1847 25.6125L21.588 21.514L36.0726 26.001C36.1143 25.8724 36.1482 25.7412 36.1873 25.6125H36.1847ZM35.6059 27.2592L21.588 21.514L35.4417 27.6297C35.4964 27.5062 35.5538 27.3827 35.6059 27.2592ZM34.8316 28.826L21.5854 21.514L34.6257 29.1759C34.6961 29.0602 34.7638 28.9444 34.829 28.826H34.8316ZM36.5679 23.917L21.588 21.514L36.4975 24.3158C36.5236 24.1846 36.547 24.0508 36.5705 23.917H36.5679ZM36.7217 22.5843C36.7321 22.4505 36.7399 22.3167 36.7478 22.1803L21.588 21.5114L36.7217 22.5817V22.5843ZM23.5537 36.3619L21.588 21.514L23.147 36.4134C23.2852 36.4005 23.4181 36.3799 23.5537 36.3619ZM33.8801 30.2926L21.5854 21.514L33.635 30.6167C33.7184 30.5087 33.7992 30.4006 33.8801 30.2926ZM26.9663 35.5206L21.5854 21.514L26.5804 35.657C26.7108 35.6132 26.8385 35.5669 26.9663 35.518V35.5206ZM28.5774 34.8079L21.5828 21.514L28.2098 34.9906C28.3323 34.9314 28.4549 34.8697 28.5748 34.8054L28.5774 34.8079ZM25.2821 36.0429L21.5854 21.514L24.8833 36.1329C25.0162 36.1046 25.1518 36.0738 25.2821 36.0429ZM30.0947 33.9177L21.5854 21.514L29.7506 34.1364C29.8653 34.0644 29.9826 33.9923 30.0947 33.9177ZM32.7669 31.6407L21.5854 21.514L32.4827 31.934C32.5792 31.8363 32.673 31.7411 32.7643 31.6407H32.7669ZM6.45172 22.5843L21.588 21.514L6.42826 22.1829C6.43347 22.3193 6.4439 22.4531 6.45433 22.5869L6.45172 22.5843ZM6.60553 19.1083L21.5854 21.5114L6.67592 18.7096C6.64985 18.8433 6.62639 18.9746 6.60293 19.1083H6.60553ZM29.7506 8.88896L21.5854 21.514L30.0947 9.11022C29.9826 9.03561 29.8653 8.96357 29.7506 8.89153V8.88896ZM28.215 8.03477L21.588 21.5114L28.5826 8.21744C28.4627 8.15569 28.3402 8.09137 28.2176 8.03219L28.215 8.03477ZM31.1818 9.90781L21.588 21.5114L31.4946 10.1677C31.3904 10.0802 31.2887 9.99014 31.1818 9.90523V9.90781ZM24.8859 6.89242L21.588 21.514L25.2847 6.98504C25.1518 6.95159 25.0188 6.92329 24.8859 6.89499V6.89242ZM26.583 7.3684L21.588 21.514L26.9689 7.50733C26.8411 7.45845 26.7134 7.41471 26.583 7.3684ZM23.147 6.61198L21.588 21.5114L23.5537 6.66086C23.4181 6.64285 23.2826 6.62484 23.147 6.6094V6.61198ZM32.4853 11.0913L21.588 21.5114L32.7695 11.3846C32.6782 11.2869 32.5818 11.1891 32.4879 11.0913H32.4853ZM36.4949 18.7096L21.5854 21.5114L36.5653 19.1083C36.5444 18.9746 36.5184 18.8433 36.4923 18.7096H36.4949ZM36.0699 17.0243L21.5854 21.514L36.182 17.4154C36.1455 17.2868 36.109 17.1555 36.0673 17.0269L36.0699 17.0243ZM33.635 12.4086L21.5854 21.514L33.8801 12.7354C33.7992 12.6273 33.7184 12.5167 33.635 12.4112V12.4086ZM36.7191 20.4411L21.5854 21.514L36.7452 20.845C36.7399 20.7087 36.7295 20.5749 36.7191 20.4411ZM35.4391 15.3957L21.5854 21.5114L35.6033 15.7662C35.5511 15.6427 35.4938 15.5192 35.4391 15.3957ZM34.6257 13.8494L21.5854 21.5114L34.8316 14.1993C34.7638 14.081 34.6961 13.9652 34.6283 13.8494H34.6257ZM11.6762 10.1702L21.5828 21.514L11.989 9.91038C11.8821 9.99528 11.7804 10.0828 11.6762 10.1728V10.1702ZM21.5828 6.53479C21.515 6.53479 21.4472 6.53994 21.3768 6.53994L21.5828 21.514L21.7888 6.53994C21.721 6.53994 21.6532 6.53479 21.5828 6.53479ZM10.4013 11.3872L21.5828 21.514L10.6855 11.0939C10.589 11.1917 10.4952 11.2869 10.4039 11.3872H10.4013ZM8.33659 14.2019L21.5828 21.514L8.53993 13.852C8.46954 13.9678 8.40176 14.0836 8.33659 14.2019ZM9.28815 12.7354L21.5828 21.514L9.5332 12.4086C9.44978 12.5167 9.36896 12.6247 9.28815 12.7328V12.7354ZM7.56231 15.7688L21.5828 21.514L7.72915 15.3983C7.67441 15.5218 7.61705 15.6453 7.56491 15.7688H7.56231ZM6.98355 17.4154L21.5802 21.514L7.09565 17.0243C7.05394 17.153 7.02005 17.2842 6.98094 17.4128L6.98355 17.4154ZM6.42044 20.845L21.5802 21.514L6.44651 20.4411C6.43608 20.5749 6.42565 20.7087 6.42044 20.845ZM19.6145 6.66343L21.5828 21.514L20.0238 6.61455C19.8856 6.62741 19.7527 6.648 19.6171 6.66601L19.6145 6.66343ZM17.8835 6.98247L21.5802 21.5114L18.2823 6.88984C18.1494 6.91815 18.0138 6.94902 17.8835 6.97989V6.98247ZM13.0709 9.10765L21.5802 21.5114L13.415 8.88638C13.3003 8.95842 13.183 9.03046 13.0709 9.10508V9.10765ZM14.5856 8.22001L21.5802 21.514L14.9506 8.03734C14.828 8.09652 14.7055 8.15826 14.5856 8.22258V8.22001ZM16.1967 7.50476L21.5802 21.5114L16.5826 7.36582C16.4522 7.40956 16.3245 7.45587 16.1967 7.50476Z" fill="url(#paint7_radial_63_573)"/>
<path d="M19.0832 29.2317L15.5337 27.2254L11.9948 29.2317L12.8981 25.4014L9.80563 22.8074L13.9077 22.4426L15.5337 18.8455L17.1703 22.4426L21.2617 22.8074L18.1692 25.4014L19.0832 29.2317Z" fill="#E5E4E2"/>
<path d="M31.2584 29.2317L27.7089 27.2254L24.1701 29.2317L25.0734 25.4014L21.9809 22.8074L26.083 22.4426L27.7089 18.8455L29.3455 22.4426L33.437 22.8074L30.3445 25.4014L31.2584 29.2317Z" fill="#E5E4E2"/>
<path d="M24.8112 21.3523L21.2617 19.346L17.7229 21.3523L18.6262 17.522L15.5337 14.928L19.6358 14.5632L21.2617 10.9661L22.8983 14.5632L26.9898 14.928L23.8973 17.522L24.8112 21.3523Z" fill="#E5E4E2"/>
</g>
<defs>
<linearGradient id="paint0_linear_63_573" x1="19.0097" y1="39.6067" x2="39.128" y2="39.6067" gradientUnits="userSpaceOnUse">
<stop stop-color="#D5D5D5"/>
<stop offset="0.05" stop-color="#E0E0E0"/>
<stop offset="0.21" stop-color="white"/>
<stop offset="0.45" stop-color="#272727"/>
<stop offset="0.67" stop-color="#B7B7B7"/>
<stop offset="1" stop-color="#D5D5D5"/>
</linearGradient>
<linearGradient id="paint1_linear_63_573" x1="4.22273" y1="40.4426" x2="24.341" y2="40.4426" gradientUnits="userSpaceOnUse">
<stop stop-color="#D5D5D5"/>
<stop offset="0.05" stop-color="#E0E0E0"/>
<stop offset="0.21" stop-color="white"/>
<stop offset="0.45" stop-color="#272727"/>
<stop offset="0.67" stop-color="#B7B7B7"/>
<stop offset="1" stop-color="#D5D5D5"/>
</linearGradient>
<radialGradient id="paint2_radial_63_573" cx="0" cy="0" r="1" gradientUnits="userSpaceOnUse" gradientTransform="translate(14.5595 7.11373) scale(39.7595 39.2387)">
<stop stop-color="#2C3C4F"/>
<stop offset="0.52" stop-color="#0D1D30"/>
<stop offset="1" stop-color="#060D29"/>
</radialGradient>
<linearGradient id="paint3_linear_63_573" x1="7.53884" y1="5.90445" x2="38.9494" y2="41.6309" gradientUnits="userSpaceOnUse">
<stop stop-color="#D5D5D5"/>
<stop offset="0.05" stop-color="#E0E0E0"/>
<stop offset="0.21" stop-color="white"/>
<stop offset="0.45" stop-color="#272727"/>
<stop offset="0.67" stop-color="#B7B7B7"/>
<stop offset="1" stop-color="#D5D5D5"/>
</linearGradient>
<linearGradient id="paint4_linear_63_573" x1="11.0844" y1="12.8949" x2="31.6145" y2="30.1934" gradientUnits="userSpaceOnUse">
<stop stop-color="#D5D5D5"/>
<stop offset="0.05" stop-color="#E0E0E0"/>
<stop offset="0.21" stop-color="white"/>
<stop offset="0.45" stop-color="#272727"/>
<stop offset="0.67" stop-color="#B7B7B7"/>
<stop offset="1" stop-color="#D5D5D5"/>
</linearGradient>
<radialGradient id="paint5_radial_63_573" cx="0" cy="0" r="1" gradientUnits="userSpaceOnUse" gradientTransform="translate(31.8883 36.5215) scale(34.7175 34.2628)">
<stop offset="0.06" stop-color="#2C3C4F"/>
<stop offset="0.52" stop-color="#0D1D30"/>
<stop offset="1" stop-color="#060D29"/>
</radialGradient>
<radialGradient id="paint6_radial_63_573" cx="0" cy="0" r="1" gradientUnits="userSpaceOnUse" gradientTransform="translate(37.7228 25.6615) scale(35.4501 34.9857)">
<stop stop-color="#CBCBCB"/>
<stop offset="0.14" stop-color="#6D6D6D"/>
<stop offset="0.25" stop-color="#4B4B4B"/>
<stop offset="0.36" stop-color="#303030"/>
<stop offset="0.48" stop-color="#1A1A1A"/>
<stop offset="0.61" stop-color="#0B0B0B"/>
<stop offset="0.77" stop-color="#020202"/>
<stop offset="1"/>
</radialGradient>
<radialGradient id="paint7_radial_63_573" cx="0" cy="0" r="1" gradientUnits="userSpaceOnUse" gradientTransform="translate(7.1504 4.65146) scale(32.6189 32.1916)">
<stop stop-color="#CBCBCB"/>
<stop offset="0.14" stop-color="#6D6D6D"/>
<stop offset="0.25" stop-color="#4B4B4B"/>
<stop offset="0.36" stop-color="#303030"/>
<stop offset="0.48" stop-color="#1A1A1A"/>
<stop offset="0.61" stop-color="#0B0B0B"/>
<stop offset="0.77" stop-color="#020202"/>
<stop offset="1"/>
</radialGradient>
<clipPath id="clip0_63_573">
<rect width="43" height="55" fill="white" transform="translate(0.0880127 0.295654)"/>
</clipPath>
</defs>
</svg>
