<svg width="44" height="56" viewBox="0 0 44 56" fill="none" xmlns="http://www.w3.org/2000/svg">
<path d="M28.6114 24.8997L19.0098 28.7636L29.5265 55.1486L32.9782 49.8386L39.1281 51.2847L28.6114 24.8997Z" fill="url(#paint0_linear_63_525)"/>
<path style="mix-blend-mode:screen" d="M28.5461 25.049L38.9377 51.1223L33.0041 49.726L32.9259 49.7077L32.8816 49.7758L29.5472 54.9024L19.1557 28.8292L28.5435 25.0517M28.6061 24.9023L19.0045 28.7663L29.5211 55.1513L32.9754 49.8413L39.1228 51.29L28.6061 24.905V24.9023Z" fill="url(#paint1_linear_63_525)"/>
<path d="M14.7394 25.7511L24.341 29.6151L13.8243 56.0001L10.3701 50.6901L4.22273 52.1361L14.7394 25.7511Z" fill="url(#paint2_linear_63_525)"/>
<path style="mix-blend-mode:screen" d="M14.802 25.9004L24.1898 29.6779L13.7983 55.7511L10.4639 50.6245L10.4196 50.5564L10.3414 50.5747L4.40783 51.971L14.7994 25.8977M14.7368 25.7484L4.22273 52.136L10.3701 50.69L13.8243 56L24.341 29.615L14.7394 25.751L14.7368 25.7484Z" fill="url(#paint3_linear_63_525)"/>
<path d="M43.088 21.6042C43.088 33.534 33.4629 43.2083 21.588 43.2083C9.71309 43.2083 0.0880127 33.534 0.0880127 21.6042C0.0880127 9.67432 9.71309 0 21.588 0C33.4629 0 43.088 9.6717 43.088 21.6042Z" fill="url(#paint4_linear_63_525)"/>
<path d="M0.583344 21.6041C0.583344 9.94671 9.98682 0.497681 21.588 0.497681C33.1892 0.497681 42.5927 9.94671 42.5927 21.6041C42.5927 33.2615 33.1892 42.7105 21.588 42.7105C9.98682 42.7105 0.583344 33.2589 0.583344 21.6041Z" fill="url(#paint5_linear_63_525)"/>
<path d="M42.1365 21.6041C42.1365 33.0074 32.9363 42.2521 21.588 42.2521C10.2397 42.2521 1.03696 33.0074 1.03696 21.6041C1.03696 10.2008 10.2371 0.953491 21.588 0.953491C32.9389 0.953491 42.1365 10.1982 42.1365 21.6015V21.6041Z" fill="url(#paint6_radial_63_525)"/>
<path d="M20.7277 41.1361C20.6026 41.1309 20.5035 41.0235 20.5061 40.8951C20.5139 40.7668 20.6182 40.6672 20.7459 40.6751C20.8737 40.6803 20.9728 40.7877 20.9675 40.9161C20.9623 41.0418 20.8607 41.1387 20.7381 41.1387C20.7381 41.1387 20.7303 41.1387 20.7277 41.1387V41.1361ZM23.9526 40.7825C23.9369 40.6541 24.023 40.5362 24.1507 40.5205C24.2758 40.5048 24.3932 40.5912 24.4114 40.7196C24.427 40.8454 24.3384 40.9606 24.2133 40.979C24.2133 40.979 24.1924 40.979 24.182 40.979C24.0699 40.979 23.9708 40.8951 23.9552 40.7799L23.9526 40.7825ZM17.2708 40.6751C17.1483 40.6436 17.0701 40.5231 17.0987 40.3974C17.1274 40.2717 17.2499 40.1931 17.3725 40.2219C17.4976 40.2507 17.5758 40.3738 17.5471 40.4996C17.5211 40.607 17.4272 40.6803 17.3203 40.6803C17.3047 40.6803 17.2891 40.6803 17.2708 40.6751ZM27.3234 40.0542C27.2843 39.9311 27.3495 39.8027 27.4694 39.7634C27.592 39.7241 27.7197 39.7896 27.7588 39.9101C27.7979 40.0306 27.7301 40.1616 27.6128 40.2009C27.5867 40.2088 27.5633 40.2114 27.5424 40.2114C27.446 40.2114 27.3573 40.1485 27.3234 40.0516V40.0542ZM13.9547 39.5958C13.8374 39.546 13.7826 39.4098 13.8322 39.2919C13.8817 39.1766 14.0147 39.1216 14.132 39.1714C14.2493 39.2212 14.304 39.3574 14.2545 39.4753C14.218 39.5617 14.132 39.6167 14.0433 39.6167C14.012 39.6167 13.9808 39.6089 13.9547 39.5984V39.5958ZM30.5066 38.7313C30.4466 38.6187 30.4883 38.4798 30.6004 38.4169C30.7099 38.3567 30.8507 38.3986 30.9107 38.5112C30.9706 38.6213 30.9289 38.7627 30.8194 38.823C30.7855 38.8439 30.7464 38.8518 30.7099 38.8518C30.6291 38.8518 30.5483 38.8073 30.5066 38.7313ZM10.8836 37.9349C10.7794 37.8642 10.7507 37.7201 10.8185 37.6153C10.8888 37.5079 11.0322 37.4817 11.1365 37.5498C11.2434 37.6206 11.2721 37.7647 11.2017 37.8694C11.1574 37.9375 11.0844 37.9742 11.0114 37.9742C10.9671 37.9742 10.9227 37.9611 10.8862 37.9349H10.8836ZM33.403 36.8556C33.3222 36.7561 33.3378 36.612 33.4395 36.5334C33.5385 36.4522 33.6819 36.4679 33.7601 36.5675C33.841 36.667 33.8253 36.8137 33.7236 36.8923C33.6819 36.9264 33.6324 36.9447 33.5803 36.9447C33.5125 36.9447 33.4473 36.9133 33.4004 36.8556H33.403ZM8.1541 35.7528C8.06285 35.6663 8.05764 35.517 8.14367 35.4253C8.2297 35.3336 8.3783 35.331 8.46955 35.4175C8.55818 35.5039 8.5634 35.6532 8.47737 35.7423C8.43044 35.7921 8.37048 35.813 8.31052 35.813C8.25577 35.813 8.19842 35.7921 8.1541 35.7502V35.7528ZM35.9187 34.4927C35.8249 34.4063 35.8145 34.2622 35.8979 34.1679C35.9813 34.071 36.1247 34.0605 36.2212 34.1443C36.315 34.2308 36.3254 34.3748 36.242 34.4692C36.1951 34.5215 36.1351 34.5504 36.0699 34.5504C36.0178 34.5504 35.9631 34.5294 35.9187 34.4927ZM5.85211 33.1174C5.77651 33.0126 5.79997 32.8712 5.90164 32.7952C6.00592 32.7219 6.1467 32.7428 6.2223 32.8476C6.29791 32.9524 6.27444 33.0938 6.17277 33.1698C6.13106 33.1986 6.08413 33.2143 6.03721 33.2143C5.96682 33.2143 5.89643 33.1829 5.85211 33.12V33.1174ZM37.9783 31.7159C37.8714 31.6504 37.8323 31.509 37.9001 31.3989C37.9652 31.2915 38.106 31.2549 38.2155 31.3177C38.3224 31.3858 38.3589 31.5247 38.2937 31.6373C38.252 31.7081 38.1738 31.7473 38.0956 31.7473C38.0565 31.7473 38.0148 31.7369 37.9783 31.7159ZM4.05588 30.1127C4.00113 30 4.04806 29.8612 4.16277 29.8062C4.27748 29.7512 4.41565 29.7957 4.47039 29.9136C4.52514 30.0289 4.47821 30.1677 4.3609 30.2227C4.32962 30.2358 4.29572 30.2463 4.26183 30.2463C4.1732 30.2463 4.09498 30.1965 4.05327 30.1153L4.05588 30.1127ZM39.5112 28.6143C39.3913 28.5697 39.3313 28.4361 39.3756 28.3182C39.4226 28.1977 39.5555 28.1375 39.6728 28.182C39.7928 28.2266 39.8527 28.3602 39.8084 28.4807C39.7745 28.5723 39.6859 28.63 39.592 28.63C39.5633 28.63 39.5399 28.6247 39.5112 28.6143ZM2.82798 26.8355C2.79409 26.7098 2.86448 26.584 2.98701 26.5526C3.10954 26.5186 3.23728 26.5893 3.26856 26.7124C3.30245 26.8381 3.23207 26.9639 3.10954 26.9953C3.08868 27.0032 3.06782 27.0058 3.04697 27.0058C2.94529 27.0058 2.85405 26.9377 2.82537 26.8381L2.82798 26.8355ZM40.468 25.2899C40.3428 25.2664 40.2594 25.1459 40.2829 25.0227C40.3063 24.897 40.4263 24.8132 40.5488 24.8367C40.6739 24.8603 40.7547 24.9808 40.7339 25.1039C40.713 25.2166 40.6166 25.2952 40.5071 25.2952C40.494 25.2952 40.4784 25.2952 40.468 25.2899ZM2.2049 23.3881C2.19448 23.2623 2.28833 23.1497 2.41346 23.1392C2.5386 23.1287 2.65331 23.2204 2.66374 23.3462C2.67417 23.4745 2.58031 23.5872 2.45518 23.5977H2.43432C2.31701 23.5977 2.21533 23.5086 2.2049 23.3881ZM40.5827 21.6146V21.591V21.5701C40.5827 21.4417 40.687 21.3395 40.8121 21.3369C40.9372 21.3369 41.0415 21.4417 41.0415 21.5674V21.5884V21.6146C41.0415 21.7403 40.9372 21.8451 40.8121 21.8451C40.687 21.8451 40.5827 21.7403 40.5827 21.6146ZM2.41086 20.1345C2.28572 20.124 2.18926 20.0088 2.2023 19.883C2.21272 19.7573 2.32483 19.663 2.44996 19.6761C2.5751 19.6865 2.67156 19.7992 2.65852 19.9249C2.6481 20.0454 2.54903 20.1345 2.42911 20.1345H2.41086ZM40.2724 18.1619C40.249 18.0362 40.3324 17.9157 40.4575 17.8921C40.5827 17.8685 40.7 17.9523 40.7235 18.0781C40.7469 18.2038 40.6635 18.3217 40.5384 18.3453C40.5253 18.3453 40.5097 18.3505 40.494 18.3505C40.3872 18.3505 40.2881 18.2719 40.2698 18.1619H40.2724ZM2.98179 16.708C2.85666 16.6766 2.78627 16.5482 2.81755 16.4251C2.85144 16.302 2.97919 16.2312 3.09911 16.2627C3.22164 16.2967 3.29463 16.4251 3.26074 16.5456C3.23207 16.6504 3.14082 16.7159 3.03915 16.7159C3.01829 16.7159 2.99743 16.7159 2.97919 16.7054L2.98179 16.708ZM39.3652 14.8559C39.3183 14.7354 39.3782 14.6044 39.4982 14.5573C39.6181 14.5101 39.7484 14.5704 39.7954 14.6909C39.8397 14.8114 39.7797 14.945 39.6624 14.9895C39.6337 15 39.6077 15.0052 39.579 15.0052C39.4877 15.0052 39.3991 14.9476 39.3652 14.8559ZM4.14973 13.4492C4.03502 13.3942 3.98549 13.2553 4.04284 13.1401C4.09759 13.0248 4.23576 12.9776 4.35047 13.0327C4.46518 13.0877 4.51471 13.2265 4.45736 13.3418C4.41565 13.4256 4.33483 13.4728 4.2488 13.4728C4.21751 13.4728 4.18102 13.4623 4.14973 13.4492ZM37.8792 11.7778C37.814 11.6678 37.8505 11.5264 37.9574 11.4583C38.0669 11.3928 38.2077 11.4294 38.2729 11.5395C38.338 11.6469 38.3042 11.7883 38.1921 11.8564C38.1556 11.88 38.1164 11.8879 38.0747 11.8879C37.9965 11.8879 37.9209 11.8486 37.8766 11.7778H37.8792ZM5.88079 10.4523C5.77651 10.379 5.75565 10.2323 5.83125 10.1301C5.90425 10.0279 6.04763 10.007 6.14931 10.0803C6.25359 10.1563 6.27444 10.3004 6.19884 10.4025C6.15452 10.4654 6.08413 10.4968 6.01374 10.4968C5.96682 10.4968 5.91989 10.4837 5.88079 10.4523ZM35.8718 9.01413C35.7858 8.91982 35.7988 8.7705 35.8927 8.6893C35.9865 8.60285 36.1351 8.61595 36.2159 8.71025C36.2994 8.80718 36.2889 8.95388 36.1951 9.03509C36.1508 9.07438 36.096 9.09272 36.0439 9.09272C35.9787 9.09272 35.9187 9.0639 35.8718 9.01413ZM8.11499 7.81696C8.02635 7.72527 8.02896 7.57595 8.12281 7.4895C8.21406 7.40305 8.36005 7.40567 8.44608 7.49736C8.53472 7.58905 8.53211 7.73575 8.44087 7.82482C8.39394 7.86673 8.33659 7.88769 8.27923 7.88769C8.21927 7.88769 8.15931 7.86411 8.11499 7.81696ZM33.4056 6.65384C33.3039 6.57525 33.2883 6.42855 33.3691 6.33162C33.4473 6.23208 33.5907 6.21636 33.6897 6.29495C33.7888 6.37354 33.8045 6.52024 33.7262 6.61716C33.6793 6.67479 33.6141 6.70361 33.5464 6.70361C33.4942 6.70361 33.4447 6.68789 33.403 6.65384H33.4056ZM10.7794 5.61908C10.709 5.51429 10.7376 5.37021 10.8445 5.3021C10.9488 5.23137 11.0922 5.26019 11.1626 5.36759C11.2304 5.475 11.2043 5.61646 11.0974 5.68719C11.0583 5.71601 11.0114 5.72649 10.9697 5.72649C10.8967 5.72649 10.8237 5.68981 10.7794 5.6217V5.61908ZM30.5613 4.77294C30.4518 4.71269 30.4101 4.57123 30.4701 4.4612C30.5301 4.34856 30.6682 4.30664 30.7803 4.36689C30.8924 4.42715 30.9341 4.56861 30.8742 4.67863C30.8325 4.75722 30.7516 4.80175 30.6708 4.80175C30.6343 4.80175 30.5978 4.79127 30.5639 4.77294H30.5613ZM13.7904 3.93727C13.7383 3.81939 13.7904 3.68317 13.9104 3.63339C14.0277 3.58362 14.1606 3.63863 14.2128 3.75652C14.2623 3.87178 14.2128 4.008 14.0929 4.05778C14.0616 4.07087 14.0329 4.07611 14.0042 4.07611C13.9156 4.07611 13.8296 4.02372 13.7931 3.93727H13.7904ZM27.4251 3.43168C27.3026 3.39239 27.2374 3.26403 27.2765 3.1409C27.3156 3.0204 27.4434 2.95491 27.5659 2.9942C27.6884 3.0335 27.751 3.16186 27.7119 3.28498C27.6806 3.38191 27.592 3.44478 27.4929 3.44478C27.4694 3.44478 27.446 3.44478 27.4251 3.4343V3.43168ZM17.0518 2.82131C17.0231 2.69556 17.1014 2.57506 17.2239 2.54363C17.349 2.51481 17.4689 2.59602 17.5002 2.71652C17.5289 2.83964 17.4507 2.96539 17.3282 2.9942C17.3099 2.99944 17.2943 3.00206 17.276 3.00206C17.1717 3.00206 17.0753 2.92871 17.0518 2.82131ZM24.1038 2.67985C23.9786 2.66151 23.89 2.54624 23.9056 2.4205C23.9213 2.29214 24.036 2.20569 24.1637 2.22141C24.2915 2.23975 24.3775 2.35501 24.3619 2.48337C24.3488 2.59864 24.2498 2.68247 24.1351 2.68247H24.1038V2.67985ZM20.4618 2.3131C20.454 2.18735 20.553 2.07733 20.6808 2.07209C20.8059 2.06423 20.9154 2.16378 20.9206 2.29214C20.9284 2.4205 20.8294 2.52791 20.7016 2.53315C20.7016 2.53315 20.6938 2.53315 20.6912 2.53315C20.5687 2.53315 20.467 2.43622 20.4618 2.31048V2.3131Z" fill="url(#paint7_linear_63_525)"/>
<path d="M3.93335 21.6042C3.93335 11.8068 11.8378 3.86401 21.588 3.86401C31.3382 3.86401 39.2427 11.8068 39.2427 21.6042C39.2427 31.4016 31.3382 39.3444 21.588 39.3444C11.8378 39.3444 3.93335 31.4016 3.93335 21.6042Z" fill="url(#paint8_linear_63_525)"/>
<path d="M38.8855 21.6041C38.8855 31.2051 31.1401 38.9854 21.588 38.9854C12.0359 38.9854 4.2879 31.2051 4.2879 21.6041C4.2879 12.0032 12.0333 4.22021 21.588 4.22021C31.1427 4.22021 38.8855 12.0032 38.8855 21.6041Z" fill="url(#paint9_linear_63_525)"/>
<path d="M35.3374 21.6042C35.3374 29.2352 29.1822 35.4202 21.588 35.4202C13.9938 35.4202 7.83865 29.2352 7.83865 21.6042C7.83865 13.9732 13.9938 7.78821 21.588 7.78821C29.1822 7.78821 35.3374 13.9732 35.3374 21.6042Z" fill="url(#paint10_linear_63_525)"/>
<path d="M5.20296 21.6042C5.20296 12.5114 12.5391 5.13977 21.588 5.13977C30.6369 5.13977 37.9731 12.5114 37.9731 21.6042C37.9731 30.697 30.6369 38.0686 21.588 38.0686C12.5391 38.0686 5.20296 30.697 5.20296 21.6042Z" fill="url(#paint11_radial_63_525)"/>
<path d="M21.588 6.16138C13.0996 6.16138 6.2197 13.0746 6.2197 21.6041C6.2197 30.1337 13.0996 37.0469 21.588 37.0469C30.0764 37.0469 36.9563 30.1337 36.9563 21.6041C36.9563 13.0746 30.0764 6.16138 21.588 6.16138ZM21.588 36.654C13.316 36.654 6.61075 29.9163 6.61075 21.6041C6.61075 13.292 13.316 6.55432 21.588 6.55432C29.8601 6.55432 36.5653 13.292 36.5653 21.6041C36.5653 29.9163 29.8601 36.654 21.588 36.654Z" fill="url(#paint12_linear_63_525)"/>
<path style="mix-blend-mode:screen" opacity="0.8" d="M11.8091 34.815C16.1237 24.4779 24.4922 16.1422 34.829 11.9089C31.8492 7.80656 27.0288 5.13977 21.588 5.13977C12.5391 5.13977 5.20296 12.5114 5.20296 21.6042C5.20296 27.0137 7.79954 31.8129 11.8091 34.815Z" fill="url(#paint13_radial_63_525)"/>
<path style="mix-blend-mode:screen" opacity="0.8" d="M14.9584 35.3259L21.588 21.6042L14.5934 35.1399C14.7133 35.2027 14.8359 35.2682 14.9584 35.3285V35.3259ZM16.5904 36.0043L21.588 21.6042L16.2045 35.8655C16.3323 35.9153 16.46 35.9598 16.5904 36.007V36.0043ZM13.4203 34.4561L21.5854 21.6042L13.0761 34.2335C13.1908 34.3094 13.3055 34.3828 13.4203 34.4561ZM11.9916 33.4188L21.588 21.6042L11.6814 33.1516C11.7857 33.2406 11.8873 33.3323 11.9942 33.4188H11.9916ZM20.0264 36.7745L21.5854 21.6042L19.6171 36.7221C19.7527 36.7405 19.8882 36.7614 20.0238 36.7745H20.0264ZM18.2875 36.489L21.5854 21.6042L17.8887 36.3973C18.0216 36.4313 18.1546 36.4602 18.2875 36.489ZM7.73176 27.8285L21.5854 21.6016L7.56491 27.4512C7.61705 27.5796 7.67441 27.7027 7.72915 27.8285H7.73176ZM7.10347 26.1728L21.588 21.6042L6.99137 25.7773C7.02787 25.9083 7.06437 26.0419 7.10608 26.1728H7.10347ZM21.588 36.8557C21.6558 36.8557 21.7236 36.8505 21.794 36.8505L21.588 21.6042L21.3821 36.8505C21.4498 36.8505 21.5176 36.8557 21.588 36.8557ZM6.67853 24.457L21.588 21.6042L6.60814 24.0509C6.629 24.1872 6.65507 24.3234 6.68114 24.457H6.67853ZM9.53581 30.8725L21.5854 21.6042L9.29075 30.5424C9.37157 30.655 9.45239 30.7651 9.53581 30.8725ZM10.6881 32.2137L21.588 21.6042L10.4066 31.9151C10.4978 32.0173 10.5943 32.1142 10.6881 32.2137ZM8.54515 29.4055L21.588 21.6042L8.3418 29.0492C8.40958 29.1697 8.47737 29.2876 8.54515 29.4055ZM31.4946 33.1516L21.588 21.6042L31.1844 33.4188C31.2887 33.3323 31.393 33.2406 31.4973 33.1516H31.4946ZM36.1847 25.7773L21.588 21.6042L36.0726 26.1728C36.1143 26.0419 36.1482 25.9083 36.1873 25.7773H36.1847ZM35.6059 27.4538L21.588 21.6042L35.4417 27.8311C35.4964 27.7053 35.5538 27.5796 35.6059 27.4538ZM34.8316 29.0492L21.5854 21.6042L34.6257 29.4055C34.6961 29.2876 34.7638 29.1697 34.829 29.0492H34.8316ZM36.5679 24.0509L21.588 21.6042L36.4975 24.457C36.5236 24.3234 36.547 24.1872 36.5705 24.0509H36.5679ZM36.7217 22.694C36.7321 22.5577 36.7399 22.4215 36.7478 22.2827L21.588 21.6016L36.7217 22.6913V22.694ZM23.5537 36.7221L21.588 21.6042L23.147 36.7745C23.2852 36.7614 23.4181 36.7405 23.5537 36.7221ZM33.8801 30.5424L21.5854 21.6042L33.635 30.8725C33.7184 30.7624 33.7992 30.6524 33.8801 30.5424ZM26.9663 35.8655L21.5854 21.6042L26.5804 36.0043C26.7108 35.9598 26.8385 35.9127 26.9663 35.8629V35.8655ZM28.5774 35.1399L21.5828 21.6042L28.2098 35.3259C28.3323 35.2656 28.4549 35.2027 28.5748 35.1372L28.5774 35.1399ZM25.2821 36.3973L21.5854 21.6042L24.8833 36.489C25.0162 36.4602 25.1518 36.4287 25.2821 36.3973ZM30.0947 34.2335L21.5854 21.6042L29.7506 34.4561C29.8653 34.3828 29.9826 34.3094 30.0947 34.2335ZM32.7669 31.9151L21.5854 21.6042L32.4827 32.2137C32.5792 32.1142 32.673 32.0173 32.7643 31.9151H32.7669ZM6.45172 22.694L21.588 21.6042L6.42826 22.2853C6.43347 22.4241 6.4439 22.5604 6.45433 22.6966L6.45172 22.694ZM6.60553 19.1548L21.5854 21.6016L6.67592 18.7488C6.64985 18.885 6.62639 19.0186 6.60293 19.1548H6.60553ZM29.7506 8.74963L21.5854 21.6042L30.0947 8.97492C29.9826 8.89895 29.8653 8.8256 29.7506 8.75225V8.74963ZM28.215 7.87991L21.588 21.6016L28.5826 8.0659C28.4627 8.00303 28.3402 7.93754 28.2176 7.87729L28.215 7.87991ZM31.1818 9.78701L21.588 21.6016L31.4946 10.0516C31.3904 9.96252 31.2887 9.87083 31.1818 9.78439V9.78701ZM24.8859 6.71679L21.588 21.6042L25.2847 6.8111C25.1518 6.77704 25.0188 6.74823 24.8859 6.71941V6.71679ZM26.583 7.20142L21.588 21.6042L26.9689 7.34288C26.8411 7.29311 26.7134 7.24858 26.583 7.20142ZM23.147 6.43125L21.588 21.6016L23.5537 6.48102C23.4181 6.46269 23.2826 6.44435 23.147 6.42863V6.43125ZM32.4853 10.992L21.588 21.6016L32.7695 11.2907C32.6782 11.1911 32.5818 11.0916 32.4879 10.992H32.4853ZM36.4949 18.7488L21.5854 21.6016L36.5653 19.1548C36.5444 19.0186 36.5184 18.885 36.4923 18.7488H36.4949ZM36.0699 17.0329L21.5854 21.6042L36.182 17.4311C36.1455 17.3001 36.109 17.1665 36.0673 17.0355L36.0699 17.0329ZM33.635 12.3333L21.5854 21.6042L33.8801 12.666C33.7992 12.556 33.7184 12.4433 33.635 12.3359V12.3333ZM36.7191 20.5118L21.5854 21.6042L36.7452 20.9231C36.7399 20.7842 36.7295 20.648 36.7191 20.5118ZM35.4391 15.3747L21.5854 21.6016L35.6033 15.7519C35.5511 15.6262 35.4938 15.5004 35.4391 15.3747ZM34.6257 13.8003L21.5854 21.6016L34.8316 14.1566C34.7638 14.0361 34.6961 13.9182 34.6283 13.8003H34.6257ZM11.6762 10.0542L21.5828 21.6042L11.989 9.78963C11.8821 9.87607 11.7804 9.96514 11.6762 10.0568V10.0542ZM21.5828 6.35266C21.515 6.35266 21.4472 6.3579 21.3768 6.3579L21.5828 21.6042L21.7888 6.3579C21.721 6.3579 21.6532 6.35266 21.5828 6.35266ZM10.4013 11.2933L21.5828 21.6042L10.6855 10.9947C10.589 11.0942 10.4952 11.1911 10.4039 11.2933H10.4013ZM8.33659 14.1592L21.5828 21.6042L8.53993 13.8029C8.46954 13.9208 8.40176 14.0387 8.33659 14.1592ZM9.28815 12.666L21.5828 21.6042L9.5332 12.3333C9.44978 12.4433 9.36896 12.5533 9.28815 12.6634V12.666ZM7.56231 15.7545L21.5828 21.6042L7.72915 15.3773C7.67441 15.5031 7.61705 15.6288 7.56491 15.7545H7.56231ZM6.98355 17.4311L21.5802 21.6042L7.09565 17.0329C7.05394 17.1639 7.02005 17.2975 6.98094 17.4285L6.98355 17.4311ZM6.42044 20.9231L21.5802 21.6042L6.44651 20.5118C6.43608 20.648 6.42565 20.7842 6.42044 20.9231ZM19.6145 6.48364L21.5828 21.6042L20.0238 6.43387C19.8856 6.44697 19.7527 6.46793 19.6171 6.48626L19.6145 6.48364ZM17.8835 6.80848L21.5802 21.6016L18.2823 6.71417C18.1494 6.74299 18.0138 6.77442 17.8835 6.80586V6.80848ZM13.0709 8.9723L21.5802 21.6016L13.415 8.74701C13.3003 8.82036 13.183 8.89371 13.0709 8.96968V8.9723ZM14.5856 8.06852L21.5802 21.6042L14.9506 7.88253C14.828 7.94278 14.7055 8.00565 14.5856 8.07114V8.06852ZM16.1967 7.34026L21.5802 21.6016L16.5826 7.1988C16.4522 7.24334 16.3245 7.29049 16.1967 7.34026Z" fill="url(#paint14_radial_63_525)"/>
<path d="M27.2445 29.5279L21.588 26.1747L15.9485 29.5279L17.388 23.1263L12.4598 18.7908L18.9969 18.1812L21.588 12.1691L24.1961 18.1812L30.7162 18.7908L25.788 23.1263L27.2445 29.5279Z" fill="url(#paint15_linear_63_525)"/>
<path style="mix-blend-mode:screen" opacity="0.8" d="M39.1175 31.027C38.2598 31.048 37.449 26.2017 37.3057 20.2001C37.1649 14.2011 37.7436 9.31809 38.6013 9.29975C39.4591 9.27879 40.2698 14.1277 40.4106 20.1267C40.5514 26.1257 39.9726 31.0061 39.1149 31.027H39.1175Z" fill="url(#paint16_radial_63_525)"/>
<defs>
<linearGradient id="paint0_linear_63_525" x1="33.4761" y1="51.2244" x2="25.7525" y2="31.7913" gradientUnits="userSpaceOnUse">
<stop stop-color="#D5D5D5"/>
<stop offset="0.05" stop-color="#E0E0E0"/>
<stop offset="0.21" stop-color="white"/>
<stop offset="0.45" stop-color="#272727"/>
<stop offset="0.67" stop-color="#B7B7B7"/>
<stop offset="1" stop-color="#D5D5D5"/>
</linearGradient>
<linearGradient id="paint1_linear_63_525" x1="19.0097" y1="40.0255" x2="39.128" y2="40.0255" gradientUnits="userSpaceOnUse">
<stop stop-color="#D5D5D5"/>
<stop offset="0.05" stop-color="#E0E0E0"/>
<stop offset="0.21" stop-color="white"/>
<stop offset="0.45" stop-color="#272727"/>
<stop offset="0.67" stop-color="#B7B7B7"/>
<stop offset="1" stop-color="#D5D5D5"/>
</linearGradient>
<linearGradient id="paint2_linear_63_525" x1="9.87212" y1="52.0758" x2="18.111" y2="31.3503" gradientUnits="userSpaceOnUse">
<stop stop-color="#D5D5D5"/>
<stop offset="0.05" stop-color="#E0E0E0"/>
<stop offset="0.21" stop-color="white"/>
<stop offset="0.45" stop-color="#272727"/>
<stop offset="0.67" stop-color="#B7B7B7"/>
<stop offset="1" stop-color="#D5D5D5"/>
</linearGradient>
<linearGradient id="paint3_linear_63_525" x1="4.22273" y1="40.8768" x2="24.341" y2="40.8768" gradientUnits="userSpaceOnUse">
<stop stop-color="#D5D5D5"/>
<stop offset="0.05" stop-color="#E0E0E0"/>
<stop offset="0.21" stop-color="white"/>
<stop offset="0.45" stop-color="#272727"/>
<stop offset="0.67" stop-color="#B7B7B7"/>
<stop offset="1" stop-color="#D5D5D5"/>
</linearGradient>
<linearGradient id="paint4_linear_63_525" x1="4.88752" y1="4.82275" x2="46.5628" y2="46.2972" gradientUnits="userSpaceOnUse">
<stop stop-color="#D5D5D5"/>
<stop offset="0.05" stop-color="#E0E0E0"/>
<stop offset="0.21" stop-color="white"/>
<stop offset="0.45" stop-color="#272727"/>
<stop offset="0.67" stop-color="#B7B7B7"/>
<stop offset="1" stop-color="#D5D5D5"/>
</linearGradient>
<linearGradient id="paint5_linear_63_525" x1="37.9053" y1="37.9978" x2="-2.81128" y2="-2.52246" gradientUnits="userSpaceOnUse">
<stop stop-color="#D5D5D5"/>
<stop offset="0.05" stop-color="#E0E0E0"/>
<stop offset="0.21" stop-color="white"/>
<stop offset="0.45" stop-color="#272727"/>
<stop offset="0.67" stop-color="#B7B7B7"/>
<stop offset="1" stop-color="#D5D5D5"/>
</linearGradient>
<radialGradient id="paint6_radial_63_525" cx="0" cy="0" r="1" gradientUnits="userSpaceOnUse" gradientTransform="translate(14.5595 6.94198) scale(39.7595 39.9521)">
<stop stop-color="#2C3C4F"/>
<stop offset="0.52" stop-color="#0D1D30"/>
<stop offset="1" stop-color="#060D29"/>
</radialGradient>
<linearGradient id="paint7_linear_63_525" x1="7.53884" y1="5.71077" x2="39.5892" y2="41.5141" gradientUnits="userSpaceOnUse">
<stop stop-color="#D5D5D5"/>
<stop offset="0.05" stop-color="#E0E0E0"/>
<stop offset="0.21" stop-color="white"/>
<stop offset="0.45" stop-color="#272727"/>
<stop offset="0.67" stop-color="#B7B7B7"/>
<stop offset="1" stop-color="#D5D5D5"/>
</linearGradient>
<linearGradient id="paint8_linear_63_525" x1="35.0715" y1="32.8713" x2="8.32001" y2="10.7288" gradientUnits="userSpaceOnUse">
<stop stop-color="#D5D5D5"/>
<stop offset="0.05" stop-color="#E0E0E0"/>
<stop offset="0.21" stop-color="white"/>
<stop offset="0.45" stop-color="#272727"/>
<stop offset="0.67" stop-color="#B7B7B7"/>
<stop offset="1" stop-color="#D5D5D5"/>
</linearGradient>
<linearGradient id="paint9_linear_63_525" x1="8.37569" y1="10.5624" x2="34.588" y2="32.2594" gradientUnits="userSpaceOnUse">
<stop stop-color="#D5D5D5"/>
<stop offset="0.05" stop-color="#E0E0E0"/>
<stop offset="0.21" stop-color="white"/>
<stop offset="0.45" stop-color="#272727"/>
<stop offset="0.67" stop-color="#B7B7B7"/>
<stop offset="1" stop-color="#D5D5D5"/>
</linearGradient>
<linearGradient id="paint10_linear_63_525" x1="11.0844" y1="12.8284" x2="31.9207" y2="30.0714" gradientUnits="userSpaceOnUse">
<stop stop-color="#D5D5D5"/>
<stop offset="0.05" stop-color="#E0E0E0"/>
<stop offset="0.21" stop-color="white"/>
<stop offset="0.45" stop-color="#272727"/>
<stop offset="0.67" stop-color="#B7B7B7"/>
<stop offset="1" stop-color="#D5D5D5"/>
</linearGradient>
<radialGradient id="paint11_radial_63_525" cx="0" cy="0" r="1" gradientUnits="userSpaceOnUse" gradientTransform="translate(31.8883 36.8845) scale(34.7175 34.8857)">
<stop offset="0.06" stop-color="#2C3C4F"/>
<stop offset="0.52" stop-color="#0D1D30"/>
<stop offset="1" stop-color="#060D29"/>
</radialGradient>
<linearGradient id="paint12_linear_63_525" x1="9.84865" y1="11.7936" x2="33.1374" y2="31.0683" gradientUnits="userSpaceOnUse">
<stop stop-color="#D5D5D5"/>
<stop offset="0.05" stop-color="#E0E0E0"/>
<stop offset="0.21" stop-color="white"/>
<stop offset="0.45" stop-color="#272727"/>
<stop offset="0.67" stop-color="#B7B7B7"/>
<stop offset="1" stop-color="#D5D5D5"/>
</linearGradient>
<radialGradient id="paint13_radial_63_525" cx="0" cy="0" r="1" gradientUnits="userSpaceOnUse" gradientTransform="translate(37.7228 25.827) scale(35.4501 35.6218)">
<stop stop-color="#CBCBCB"/>
<stop offset="0.14" stop-color="#6D6D6D"/>
<stop offset="0.25" stop-color="#4B4B4B"/>
<stop offset="0.36" stop-color="#303030"/>
<stop offset="0.48" stop-color="#1A1A1A"/>
<stop offset="0.61" stop-color="#0B0B0B"/>
<stop offset="0.77" stop-color="#020202"/>
<stop offset="1"/>
</radialGradient>
<radialGradient id="paint14_radial_63_525" cx="0" cy="0" r="1" gradientUnits="userSpaceOnUse" gradientTransform="translate(7.1504 4.43509) scale(32.6189 32.7769)">
<stop stop-color="#CBCBCB"/>
<stop offset="0.14" stop-color="#6D6D6D"/>
<stop offset="0.25" stop-color="#4B4B4B"/>
<stop offset="0.36" stop-color="#303030"/>
<stop offset="0.48" stop-color="#1A1A1A"/>
<stop offset="0.61" stop-color="#0B0B0B"/>
<stop offset="0.77" stop-color="#020202"/>
<stop offset="1"/>
</radialGradient>
<linearGradient id="paint15_linear_63_525" x1="11.613" y1="9.56101" x2="56.5089" y2="65.4819" gradientUnits="userSpaceOnUse">
<stop stop-color="#D5D5D5"/>
<stop offset="0.05" stop-color="#E0E0E0"/>
<stop offset="0.21" stop-color="white"/>
<stop offset="0.45" stop-color="#272727"/>
<stop offset="0.67" stop-color="#B7B7B7"/>
<stop offset="1" stop-color="#D5D5D5"/>
</linearGradient>
<radialGradient id="paint16_radial_63_525" cx="0" cy="0" r="1" gradientUnits="userSpaceOnUse" gradientTransform="translate(38.6974 21.1829) rotate(88.6366) scale(10.8666 1.55378)">
<stop stop-color="#CBCBCB"/>
<stop offset="0.14" stop-color="#6D6D6D"/>
<stop offset="0.25" stop-color="#4B4B4B"/>
<stop offset="0.36" stop-color="#303030"/>
<stop offset="0.48" stop-color="#1A1A1A"/>
<stop offset="0.61" stop-color="#0B0B0B"/>
<stop offset="0.77" stop-color="#020202"/>
<stop offset="1"/>
</radialGradient>
</defs>
</svg>
