<svg width="45" height="44" viewBox="0 0 45 44" fill="none" xmlns="http://www.w3.org/2000/svg">
<path d="M42.2551 22C42.2552 21.6593 42.1605 21.3253 41.9814 21.0355C41.8023 20.7457 41.546 20.5115 41.2413 20.3592L35.3544 17.4167L41.2413 14.4834C41.5463 14.3313 41.803 14.0972 41.9824 13.8074C42.1618 13.5175 42.2568 13.1834 42.2568 12.8425C42.2568 12.5017 42.1618 12.1675 41.9824 11.8777C41.803 11.5878 41.5463 11.3537 41.2413 11.2017L22.9079 2.03503C22.6535 1.90787 22.3729 1.84167 22.0884 1.84167C21.804 1.84167 21.5234 1.90787 21.2689 2.03503L2.93559 11.2017C2.63051 11.3537 2.37386 11.5878 2.19447 11.8777C2.01508 12.1675 1.92004 12.5017 1.92004 12.8425C1.92004 13.1834 2.01508 13.5175 2.19447 13.8074C2.37386 14.0972 2.63051 14.3313 2.93559 14.4834L8.82242 17.4167L2.93559 20.3592C2.63051 20.5112 2.37386 20.7453 2.19447 21.0352C2.01508 21.325 1.92004 21.6592 1.92004 22C1.92004 22.3409 2.01508 22.675 2.19447 22.9649C2.37386 23.2547 2.63051 23.4888 2.93559 23.6409L8.82242 26.5834L2.93559 29.5259C2.63051 29.6779 2.37386 29.912 2.19447 30.2019C2.01508 30.4917 1.92004 30.8258 1.92004 31.1667C1.92004 31.5076 2.01508 31.8417 2.19447 32.1315C2.37386 32.4214 2.63051 32.6555 2.93559 32.8075L21.2689 41.9742C21.5234 42.1014 21.804 42.1676 22.0884 42.1676C22.3729 42.1676 22.6535 42.1014 22.9079 41.9742L41.2413 32.8075C41.5463 32.6555 41.803 32.4214 41.9824 32.1315C42.1618 31.8417 42.2568 31.5076 42.2568 31.1667C42.2568 30.8258 42.1618 30.4917 41.9824 30.2019C41.803 29.912 41.5463 29.6779 41.2413 29.5259L35.3544 26.5834L41.2413 23.65C41.5474 23.497 41.8046 23.2614 41.9838 22.9698C42.163 22.6782 42.257 22.3423 42.2551 22ZM36.3224 31.1667L22.0884 38.2837L7.85442 31.1667L12.9218 28.633L21.2689 32.8167C21.5234 32.9439 21.804 33.0101 22.0884 33.0101C22.3729 33.0101 22.6535 32.9439 22.9079 32.8167L31.2551 28.633L36.3224 31.1667ZM22.0884 29.117L7.85442 22L12.9218 19.4664L21.2689 23.65C21.5234 23.7772 21.804 23.8434 22.0884 23.8434C22.3729 23.8434 22.6535 23.7772 22.9079 23.65L31.2551 19.4664L36.3224 22L22.0884 29.117Z" fill="white" fill-opacity="0.6"/>
</svg>
