<?xml version="1.0" encoding="UTF-8"?>
<svg id="Layer_2" data-name="Layer 2" xmlns="http://www.w3.org/2000/svg" xmlns:xlink="http://www.w3.org/1999/xlink" viewBox="0 0 302.87 364.79">
  <defs>
    <style>
      .cls-1 {
        fill: url(#radial-gradient-8);
      }

      .cls-1, .cls-2, .cls-3, .cls-4, .cls-5, .cls-6, .cls-7, .cls-8 {
        stroke-width: 0px;
      }

      .cls-2 {
        fill: url(#radial-gradient-2);
      }

      .cls-3 {
        fill: url(#radial-gradient-7);
      }

      .cls-4 {
        fill: url(#radial-gradient-5);
      }

      .cls-5 {
        fill: url(#radial-gradient);
      }

      .cls-6 {
        fill: url(#radial-gradient-6);
      }

      .cls-7 {
        fill: url(#radial-gradient-3);
      }

      .cls-8 {
        fill: url(#radial-gradient-4);
      }
    </style>
    <radialGradient id="radial-gradient" cx="-9.3" cy="328.52" fx="-9.3" fy="328.52" r="465.36" gradientUnits="userSpaceOnUse">
      <stop offset=".15" stop-color="#241157"/>
      <stop offset=".45" stop-color="#4c1ca6"/>
      <stop offset=".69" stop-color="#9423b6"/>
    </radialGradient>
    <radialGradient id="radial-gradient-2" cy="328.52" fy="328.52" r="465.36" xlink:href="#radial-gradient"/>
    <radialGradient id="radial-gradient-3" cx="-9.3" cy="328.52" fx="-9.3" fy="328.52" r="465.36" xlink:href="#radial-gradient"/>
    <radialGradient id="radial-gradient-4" cx="-9.3" cy="328.52" fx="-9.3" fy="328.52" r="465.36" xlink:href="#radial-gradient"/>
    <radialGradient id="radial-gradient-5" cx="-9.3" cy="328.52" fx="-9.3" fy="328.52" r="465.36" xlink:href="#radial-gradient"/>
    <radialGradient id="radial-gradient-6" cx="-9.3" cy="328.52" fx="-9.3" fy="328.52" r="465.36" xlink:href="#radial-gradient"/>
    <radialGradient id="radial-gradient-7" cx="-9.3" fx="-9.3" r="465.36" xlink:href="#radial-gradient"/>
    <radialGradient id="radial-gradient-8" cx="-9.3" cy="328.52" fx="-9.3" fy="328.52" r="465.36" xlink:href="#radial-gradient"/>
  </defs>
  <g id="Layer_1-2" data-name="Layer 1">
    <g>
      <g>
        <path class="cls-5" d="m71.35,302.56c0-2.24,0-4.01,0-5.78,0-70.63,0-141.26-.1-211.89,0-2.12-.81-4.63-2.09-6.3C51.04,54.86,29.8,34.68,2.96,20.95c-.67-.34-1.37-.64-2.44-1.13-.12,1.18-.3,2.09-.3,3.01,0,70.3.21,140.6-.08,210.89-.12,29.51,20.1,55.96,47.73,64.92,7.53,2.44,15.2,3.82,23.48,3.91Z"/>
        <path class="cls-2" d="m88.07,105.35c-3.93,7.76-6.36,15.1-7.01,22.89-.49,5.85-.64,11.74-.64,17.62-.04,71.29-.02,142.57-.02,213.86,0,1.43,0,2.87,0,5.07,4.91-.57,9.6-.88,14.21-1.7,27.87-4.94,50.23-26.66,55.86-54.49,1-4.95,1.1-10.15,1.13-15.23.13-22.76.1-45.52.05-68.29,0-1.37-.36-2.89-1-4.1-15.09-28.64-30.14-57.3-45.42-85.84-5.28-9.86-11.14-19.4-17.15-29.8Z"/>
        <path class="cls-7" d="m151.49,207.6c0-47.13,0-93.37,0-139.99-7.33,0-14.24,1.13-21.03,3.19-14.78,4.49-26.88,12.84-36.38,25.02-1.62,2.08-1.89,3.73-.37,6.12,15.8,24.8,28.96,51.07,42.49,77.14,4.59,8.85,9.25,17.67,13.89,26.5.24.46.59.86,1.4,2.01Z"/>
        <path class="cls-8" d="m71.46,69.69c-.64-25.43-11.34-44.75-32.12-58.38C28.46,4.18,16.36.55,3.33,0,1.12-.08.17.44.12,2.84-.08,13.64-.95,11.2,7.73,15.85c18.86,9.3,35.07,22.37,49.32,37.83,4.71,5.11,9.3,10.33,14.4,16Z"/>
      </g>
      <g>
        <path class="cls-4" d="m231.52,302.56c0-2.24,0-4.01,0-5.78,0-70.63,0-141.26.1-211.89,0-2.12.81-4.63,2.09-6.3,18.11-23.73,39.36-43.9,66.19-57.64.67-.34,1.37-.64,2.44-1.13.12,1.18.3,2.09.3,3.01,0,70.3-.21,140.6.08,210.89.12,29.51-20.1,55.96-47.73,64.92-7.53,2.44-15.2,3.82-23.48,3.91Z"/>
        <path class="cls-6" d="m214.8,105.35c3.93,7.76,6.36,15.1,7.01,22.89.49,5.85.64,11.74.64,17.62.04,71.29.02,142.57.02,213.86,0,1.43,0,2.87,0,5.07-4.91-.57-9.6-.88-14.21-1.7-27.87-4.94-50.23-26.66-55.86-54.49-1-4.95-1.1-10.15-1.13-15.23-.13-22.76-.1-45.52-.05-68.29,0-1.37.36-2.89,1-4.1,15.09-28.64,30.14-57.3,45.42-85.84,5.28-9.86,11.14-19.4,17.15-29.8Z"/>
        <path class="cls-3" d="m151.38,207.6c0-47.13,0-93.37,0-139.99,7.33,0,14.24,1.13,21.03,3.19,14.78,4.49,26.88,12.84,36.38,25.02,1.62,2.08,1.89,3.73.37,6.12-15.8,24.8-28.96,51.07-42.49,77.14-4.59,8.85-9.25,17.67-13.89,26.5-.24.46-.59.86-1.4,2.01Z"/>
        <path class="cls-1" d="m231.42,69.69c.64-25.43,11.34-44.75,32.12-58.38C274.42,4.18,286.52.55,299.54,0c2.21-.09,3.16.43,3.21,2.83.2,10.8,1.07,8.36-7.61,13.01-18.86,9.3-35.07,22.37-49.32,37.83-4.71,5.11-9.3,10.33-14.4,16Z"/>
      </g>
    </g>
  </g>
</svg>